<?xml version="1.0" encoding="UTF-8"?>
<!DOCTYPE svg PUBLIC "-//W3C//DTD SVG 1.1//EN" "http://www.w3.org/Graphics/SVG/1.1/DTD/svg11.dtd">
<!-- Creator: CorelDRAW 2017 -->
<svg xmlns="http://www.w3.org/2000/svg" xml:space="preserve" width="8.5in" height="2.684in" version="1.1" style="shape-rendering:geometricPrecision; text-rendering:geometricPrecision; image-rendering:optimizeQuality; fill-rule:evenodd; clip-rule:evenodd"
viewBox="0 0 8500 2684"
 xmlns:xlink="http://www.w3.org/1999/xlink">
 <defs>
  <style type="text/css">
   <![CDATA[
    .fil0 {fill:#56B4D9}
    .fil1 {fill:#FEFEFE;fill-rule:nonzero}
   ]]>
  </style>
 </defs>
 <g id="Layer_x0020_1">
  <metadata id="CorelCorpID_0Corel-Layer"/>
  <polygon class="fil0" points="-0,-0.11 8500,-0.11 8500,2684.1 -0,2684.11 -0,-0.1 "/>
  <path class="fil1" d="M1598.75 755.68l0 150.17 -29.08 0 0 -378.17 93 0c39.75,0 69.92,9.25 90.5,27.67 20.58,18.5 30.83,45 30.83,79.5 0,36.33 -11.91,65.5 -35.83,87.67 -24,22.08 -55.92,33.17 -96,33.17l-53.42 0zm0 -201.17l0 174.58 52.5 0c33.33,0 58.83,-8 76.33,-23.91 17.58,-16 26.41,-38.42 26.41,-67.42 0,-55.5 -32.17,-83.25 -96.41,-83.25l-58.83 0z"/>
  <path id="1" class="fil1" d="M2019.83 912.43c-34.5,0 -65.08,-8 -91.92,-24 -26.75,-16.08 -47.42,-38.75 -62,-68.17 -14.58,-29.33 -21.83,-62.5 -21.83,-99.5 0,-39.5 7.42,-74.5 22.25,-104.92 14.75,-30.5 36,-53.83 63.67,-70.08 27.67,-16.33 59.92,-24.42 96.67,-24.42 33.42,0 63.09,7.83 89.17,23.67 26,15.75 46.25,38.17 60.75,67.25 14.5,29.08 21.75,62.08 21.75,99 0,40.5 -7.17,76 -21.58,106.33 -14.42,30.33 -35.17,53.75 -62.25,70.17 -27.17,16.42 -58.67,24.67 -94.67,24.67zm2.75 -364.5c-28.33,0 -53.92,7.17 -76.67,21.58 -22.83,14.42 -40.5,34.58 -53,60.58 -12.5,25.92 -18.83,55.17 -18.83,87.75 0,33.42 6,62.83 17.83,88.25 11.92,25.5 28.92,45.17 51,59 22.17,13.83 47.67,20.75 76.42,20.75 46.42,0 82.83,-15.17 109.33,-45.58 26.42,-30.33 39.67,-71.83 39.67,-124.58 0,-52.25 -13,-93.25 -38.83,-123.09 -25.92,-29.75 -61.58,-44.67 -106.92,-44.67z"/>
  <path id="2" class="fil1" d="M2550.17 879.51c-38.92,21.92 -79.42,32.92 -121.59,32.92 -33.75,0 -63.83,-7.92 -90.5,-23.83 -26.58,-15.83 -47.17,-38.25 -61.75,-67.25 -14.58,-28.92 -21.83,-62 -21.83,-99.08 0,-38.25 8,-72.75 23.92,-103.42 15.92,-30.67 38.42,-54.58 67.5,-71.75 29.08,-17.17 61.92,-25.75 98.5,-25.75 34.67,0 67.33,6.67 97.92,20l0 32c-33.83,-16.92 -67.75,-25.42 -101.83,-25.42 -30.08,0 -57.08,7.17 -80.92,21.58 -23.83,14.42 -42.33,34.67 -55.41,60.83 -13.09,26.08 -19.67,55.42 -19.67,88 0,52.08 13.42,93 40.17,122.83 26.83,29.75 63.08,44.67 108.75,44.67 33.42,0 62.58,-7.17 87.67,-21.5l0 -121.58 -88.08 0 0 -26.33 117.17 0 0 163.08z"/>
  <polygon id="3" class="fil1" points="2702.75,527.68 2702.75,553.76 2665.66,553.76 2665.66,879.68 2702.75,879.68 2702.75,905.84 2599.75,905.84 2599.75,879.68 2636.83,879.68 2636.83,553.76 2599.75,553.76 2599.75,527.68 "/>
  <polygon id="4" class="fil1" points="3232.91,1032.59 3205.83,1032.59 3205.83,492.76 3232.91,492.76 "/>
  <path id="5" class="fil1" d="M3773.59 905.84l0 -378.17 100.58 0c29.75,0 53.67,8 71.67,24 18,16.08 27,37.17 27,63.41 0,22.09 -5.83,41.09 -17.5,57 -11.67,15.83 -27.83,27.17 -48.67,34l0 1c26,2.59 46.67,12.09 61.83,28.5 15.25,16.33 22.83,37 22.83,62.09 0,31.75 -10.5,57.75 -31.58,77.91 -21.08,20.17 -48.92,30.25 -83.42,30.25l-102.75 0zm29.08 -351.33l0 142.08 51.5 0c27.17,0 48.75,-6.83 64.67,-20.58 15.92,-13.75 23.92,-32.42 23.92,-55.83 0,-43.75 -26.33,-65.67 -79.08,-65.67l-61 0zm0 168.5l0 156.5 68.33 0c29.25,0 51.67,-6.92 67.17,-20.75 15.42,-13.83 23.17,-33.58 23.17,-59.08 0,-51.17 -34.58,-76.67 -103.75,-76.67l-54.92 0z"/>
  <path id="6" class="fil1" d="M4272.17 773.26l-198.5 0c0,35.5 8.33,63.42 25,83.92 16.67,20.41 40,30.58 70,30.58 30.25,0 59.42,-10.92 87.58,-32.67l0 28.09c-27.33,19.5 -58.5,29.25 -93.5,29.25 -36.25,0 -65,-12.75 -86,-38.33 -21.08,-25.58 -31.67,-60.33 -31.67,-104.25 0,-25.83 5.25,-49.67 15.67,-71.25 10.42,-21.67 24.92,-38.67 43.58,-50.91 18.59,-12.33 39.42,-18.42 62.33,-18.42 33.33,0 59.33,11.67 77.75,35 18.5,23.33 27.75,55.58 27.75,96.58l0 12.42zm-28.58 -24.17c-0.83,-30.41 -8,-53.91 -21.5,-70.41 -13.5,-16.5 -32.33,-24.75 -56.42,-24.75 -24.83,0 -45.33,8.25 -61.25,24.83 -15.92,16.67 -25.83,40.08 -29.75,70.33l168.92 0z"/>
  <polygon id="7" class="fil1" points="4524.83,905.84 4344.17,905.84 4344.17,527.68 4373.25,527.68 4373.25,879.51 4524.83,879.51 "/>
  <path id="8" class="fil1" d="M4696.17 912.43c-38.58,0 -69.58,-12.75 -93.17,-38.33 -23.5,-25.58 -35.25,-59.33 -35.25,-101.33 0,-44.25 12,-79.25 35.92,-104.92 23.92,-25.75 56,-38.58 96.17,-38.58 38.92,0 69.5,12.67 91.83,38.08 22.25,25.33 33.42,59.92 33.42,103.75 0,42.17 -11.59,76.25 -34.75,102.25 -23.25,26.08 -54.58,39.08 -94.17,39.08zm2.17 -258.5c-31.5,0 -56.42,10.58 -74.67,31.92 -18.25,21.33 -27.33,50.42 -27.33,87.17 0,35.17 9.17,63.08 27.42,83.75 18.33,20.67 42.92,31 73.67,31 31.42,0 55.75,-10.25 73.08,-30.75 17.33,-20.5 26,-49.25 26,-86.17 0,-37.58 -8.58,-66.5 -25.75,-86.67 -17.17,-20.17 -41.25,-30.25 -72.42,-30.25z"/>
  <path id="9" class="fil1" d="M5102.67 905.84l-27.08 0 0 -156.75c0,-63.5 -23.08,-95.17 -69.08,-95.17 -16.67,0 -31.58,4.25 -44.83,12.92 -13.25,8.58 -23.58,20.42 -31,35.5 -7.41,15.08 -11.08,31.33 -11.08,48.75l0 154.75 -27.33 0 0 -270 27.33 0 0 48.33 1.17 0c19.75,-36.67 50.33,-54.92 91.83,-54.92 29.17,0 51.42,9.67 66.92,29.17 15.42,19.42 23.17,47.17 23.17,83.08l0 164.33z"/>
  <path id="10" class="fil1" d="M5402.5 885.59c0,49.92 -11.17,86.92 -33.5,110.92 -22.25,24 -57,36.09 -104.25,36.09 -27.33,0 -54.5,-6.83 -81.5,-20.33l0 -28.08c28.83,16 56.17,24 82,24 73.08,0 109.67,-38.75 109.67,-116.25l0 -34.17 -1 0c-21,36.42 -53.25,54.67 -96.67,54.67 -34.17,0 -61.5,-12.33 -81.92,-37.08 -20.42,-24.75 -30.67,-57.83 -30.67,-99.17 0,-28.5 5.17,-53.92 15.5,-76.25 10.33,-22.42 25,-39.75 44,-52.17 18.92,-12.33 40.33,-18.5 64.25,-18.5 39.42,0 67.92,16.08 85.5,48.33l1 0 0 -41.75 27.59 0 0 249.75zm-27.59 -94l0 -51.25c0,-24.25 -8.17,-44.75 -24.33,-61.42 -16.17,-16.67 -36.42,-25 -60.67,-25 -29.17,0 -52.5,10.92 -70.17,32.83 -17.67,21.83 -26.5,50.92 -26.5,87.25 0,35 8,62.67 23.92,83.17 15.92,20.41 37.5,30.58 64.67,30.58 17.75,0 33.83,-4.17 48.17,-12.42 14.25,-8.33 25.33,-19.92 33.17,-34.67 7.83,-14.83 11.75,-31.17 11.75,-49.09z"/>
  <path class="fil1" d="M5615.72 774.33c-2.37,0 -4.31,-0.81 -5.9,-2.46 -1.59,-1.65 -2.37,-3.63 -2.37,-5.96 0,-2.43 0.81,-4.37 2.46,-5.9 1.65,-1.52 3.56,-2.27 5.8,-2.27 2.27,0 4.24,0.74 5.93,2.24 1.69,1.46 2.5,3.43 2.5,5.93 0,2.2 -0.78,4.18 -2.4,5.87 -1.62,1.72 -3.63,2.56 -6.03,2.56zm5.31 131.51l-10.63 0 0 -105 10.63 0 0 105z"/>
  <path id="1" class="fil1" d="M5736.56 905.84l-10.53 0 0 -60.96c0,-24.69 -8.98,-37.01 -26.87,-37.01 -6.48,0 -12.28,1.65 -17.43,5.02 -5.15,3.33 -9.17,7.94 -12.06,13.8 -2.89,5.87 -4.31,12.19 -4.31,18.96l0 60.18 -10.63 0 0 -105 10.63 0 0 18.8 0.45 0c7.68,-14.26 19.57,-21.36 35.71,-21.36 11.34,0 20,3.76 26.02,11.34 6,7.55 9.01,18.34 9.01,32.31l0 63.91z"/>
  <path id="2" class="fil1" d="M5868.43 904.52c-4.76,2.27 -9.46,3.4 -14.16,3.4 -15.94,0 -23.92,-9.46 -23.92,-28.39l0 -69.09 -18.8 0 0 -9.59 18.8 0 0 -26.96 10.63 -3.63 0 30.59 27.45 0 0 9.59 -27.45 0 0 61.22c0,7.91 0.45,13.61 1.39,17.05 0.91,3.46 2.4,5.96 4.5,7.52 2.07,1.52 5.15,2.3 9.2,2.3 3.98,0 8.1,-1.26 12.35,-3.79l0 9.79z"/>
  <path id="3" class="fil1" d="M5971.35 905.84l-10.53 0 0 -62.58c0,-12.22 -2.24,-21.16 -6.71,-26.86 -4.44,-5.7 -11.34,-8.52 -20.64,-8.52 -6.58,0 -12.38,1.65 -17.44,5.02 -5.02,3.33 -8.91,8.07 -11.7,14.19 -2.79,6.09 -4.18,12.93 -4.18,20.45l0 58.3 -10.63 0 0 -155.42 10.63 0 0 69.12 0.45 0c8.23,-14.19 20.16,-21.26 35.81,-21.26 11.5,0 20.22,3.6 26.09,10.86 5.9,7.26 8.85,17.79 8.85,31.66l0 65.04z"/>
  <path id="4" class="fil1" d="M6083.77 854.28l-77.19 0c0,13.8 3.24,24.66 9.72,32.63 6.48,7.94 15.56,11.89 27.22,11.89 11.76,0 23.11,-4.25 34.06,-12.7l0 10.92c-10.63,7.58 -22.75,11.37 -36.36,11.37 -14.1,0 -25.28,-4.96 -33.44,-14.91 -8.2,-9.95 -12.31,-23.46 -12.31,-40.54 0,-10.04 2.04,-19.31 6.09,-27.7 4.05,-8.43 9.69,-15.04 16.95,-19.8 7.22,-4.8 15.33,-7.16 24.24,-7.16 12.96,0 23.07,4.54 30.24,13.61 7.19,9.07 10.79,21.62 10.79,37.56l0 4.83zm-11.12 -9.4c-0.32,-11.83 -3.11,-20.97 -8.36,-27.39 -5.25,-6.41 -12.57,-9.62 -21.94,-9.62 -9.66,0 -17.63,3.21 -23.82,9.66 -6.19,6.48 -10.05,15.59 -11.57,27.35l65.69 0z"/>
  <path id="5" class="fil1" d="M6161.61 901.27l0 -12.35c3.21,2.79 7.45,5.15 12.67,7.03 5.22,1.91 9.89,2.85 14,2.85 16.2,0 24.31,-6.39 24.31,-19.19 0,-4.28 -1.62,-8.04 -4.89,-11.24 -3.28,-3.18 -9.4,-6.71 -18.37,-10.57 -9.92,-4.18 -16.98,-8.62 -21.17,-13.25 -4.18,-4.67 -6.28,-10.47 -6.28,-17.44 0,-8.36 3.33,-15.23 9.98,-20.67 6.64,-5.44 15,-8.17 25.08,-8.17 8.98,0 16.75,1.78 23.33,5.41l0 11.76c-7.84,-5.06 -16.04,-7.58 -24.59,-7.58 -6.65,0 -12.09,1.65 -16.33,5.02 -4.21,3.33 -6.35,7.87 -6.35,13.57 0,3.67 0.61,6.61 1.81,8.88 1.2,2.24 3.21,4.31 6.03,6.25 2.82,1.94 7.45,4.31 13.9,7.17 11.63,5.19 19.38,9.85 23.17,14 3.79,4.15 5.7,9.69 5.7,16.59 0,8.65 -3.34,15.65 -10.01,21.03 -6.68,5.35 -15.43,8 -26.25,8 -10.27,0 -18.83,-2.37 -25.73,-7.13z"/>
  <path id="6" class="fil1" d="M6331.75 905.84l-10.53 0 0 -62.58c0,-12.22 -2.24,-21.16 -6.71,-26.86 -4.44,-5.7 -11.34,-8.52 -20.64,-8.52 -6.58,0 -12.38,1.65 -17.44,5.02 -5.02,3.33 -8.91,8.07 -11.7,14.19 -2.79,6.09 -4.18,12.93 -4.18,20.45l0 58.3 -10.63 0 0 -155.42 10.63 0 0 69.12 0.45 0c8.23,-14.19 20.16,-21.26 35.81,-21.26 11.5,0 20.22,3.6 26.09,10.86 5.9,7.26 8.85,17.79 8.85,31.66l0 65.04z"/>
  <path id="7" class="fil1" d="M6405.8 908.4c-15,0 -27.06,-4.96 -36.23,-14.91 -9.14,-9.95 -13.71,-23.07 -13.71,-39.41 0,-17.21 4.67,-30.82 13.97,-40.8 9.3,-10.01 21.78,-15 37.4,-15 15.13,0 27.03,4.93 35.71,14.81 8.65,9.85 13,23.3 13,40.35 0,16.4 -4.5,29.65 -13.52,39.76 -9.04,10.14 -21.22,15.2 -36.62,15.2zm0.84 -100.52c-12.25,0 -21.94,4.11 -29.04,12.41 -7.1,8.3 -10.63,19.61 -10.63,33.9 0,13.68 3.56,24.53 10.66,32.57 7.13,8.04 16.69,12.06 28.65,12.06 12.22,0 21.68,-3.99 28.42,-11.96 6.74,-7.97 10.11,-19.15 10.11,-33.51 0,-14.61 -3.33,-25.86 -10.01,-33.7 -6.68,-7.84 -16.04,-11.76 -28.16,-11.76z"/>
  <path id="8" class="fil1" d="M6532.44 811.86c-3.05,-2.3 -6.84,-3.43 -11.37,-3.43 -8.75,0 -15.69,4.31 -20.84,12.93 -5.19,8.59 -7.74,20.13 -7.74,34.55l0 49.94 -10.44 0 0 -105 10.44 0 0 22.98 0.45 0c2.5,-8.04 6.32,-14.22 11.5,-18.57 5.19,-4.34 11.08,-6.52 17.66,-6.52 3.86,0 7.29,0.65 10.34,1.91l0 11.21z"/>
  <path id="9" class="fil1" d="M6594.63 904.52c-4.76,2.27 -9.46,3.4 -14.16,3.4 -15.94,0 -23.92,-9.46 -23.92,-28.39l0 -69.09 -18.8 0 0 -9.59 18.8 0 0 -26.96 10.63 -3.63 0 30.59 27.45 0 0 9.59 -27.45 0 0 61.22c0,7.91 0.45,13.61 1.39,17.05 0.91,3.46 2.4,5.96 4.5,7.52 2.07,1.52 5.15,2.3 9.2,2.3 3.98,0 8.1,-1.26 12.35,-3.79l0 9.79z"/>
  <path id="10" class="fil1" d="M6758.22 897.97c0,19.41 -4.34,33.8 -13.03,43.13 -8.65,9.33 -22.17,14.03 -40.54,14.03 -10.63,0 -21.19,-2.66 -31.69,-7.91l0 -10.92c11.21,6.22 21.84,9.33 31.89,9.33 28.42,0 42.65,-15.07 42.65,-45.21l0 -13.28 -0.39 0c-8.17,14.16 -20.71,21.26 -37.59,21.26 -13.29,0 -23.92,-4.8 -31.85,-14.42 -7.94,-9.62 -11.93,-22.49 -11.93,-38.56 0,-11.08 2.01,-20.97 6.03,-29.65 4.02,-8.72 9.72,-15.46 17.11,-20.28 7.35,-4.8 15.69,-7.2 24.98,-7.2 15.33,0 26.41,6.26 33.25,18.8l0.39 0 0 -16.24 10.73 0 0 97.13zm-10.73 -36.56l0 -19.93c0,-9.43 -3.18,-17.41 -9.46,-23.89 -6.28,-6.48 -14.16,-9.72 -23.59,-9.72 -11.34,0 -20.42,4.24 -27.29,12.77 -6.87,8.49 -10.3,19.8 -10.3,33.93 0,13.61 3.11,24.37 9.3,32.34 6.19,7.94 14.58,11.89 25.15,11.89 6.9,0 13.16,-1.62 18.73,-4.83 5.54,-3.24 9.85,-7.74 12.9,-13.48 3.05,-5.77 4.57,-12.12 4.57,-19.09z"/>
  <path id="11" class="fil1" d="M6842.22 811.86c-3.05,-2.3 -6.84,-3.43 -11.37,-3.43 -8.75,0 -15.69,4.31 -20.84,12.93 -5.19,8.59 -7.74,20.13 -7.74,34.55l0 49.94 -10.44 0 0 -105 10.44 0 0 22.98 0.45 0c2.5,-8.04 6.32,-14.22 11.5,-18.57 5.19,-4.34 11.08,-6.52 17.66,-6.52 3.86,0 7.29,0.65 10.34,1.91l0 11.21z"/>
  <path id="12" class="fil1" d="M6934.42 905.84l-10.63 0 0 -20.22 -0.39 0c-3.24,6.83 -8.01,12.35 -14.36,16.53 -6.32,4.18 -13.32,6.25 -20.97,6.25 -9.82,0 -17.69,-2.72 -23.69,-8.17 -5.96,-5.44 -8.98,-12.64 -8.98,-21.55 0,-18.73 12.06,-29.88 36.17,-33.41l32.21 -4.76c0,-21.78 -8.3,-32.63 -24.89,-32.63 -11.76,0 -23.04,4.57 -33.8,13.74l0 -12.31c4.38,-3.31 9.89,-5.96 16.53,-8 6.65,-2.01 12.74,-3.02 18.31,-3.02 11.15,0 19.67,3.31 25.6,9.95 5.9,6.65 8.88,16.43 8.88,29.36l0 68.25zm-10.63 -55.93l-28.29 4.08c-11.28,1.65 -18.89,4.21 -22.91,7.71 -3.99,3.47 -5.96,8.94 -5.96,16.43 0,6.19 2.04,11.18 6.16,14.97 4.12,3.82 9.72,5.7 16.82,5.7 6.32,0 12.12,-1.65 17.37,-4.99 5.25,-3.3 9.37,-7.94 12.35,-13.84 2.98,-5.93 4.47,-12.54 4.47,-19.8l0 -10.27z"/>
  <path id="13" class="fil1" d="M6960.44 901.27l0 -12.35c3.21,2.79 7.45,5.15 12.67,7.03 5.22,1.91 9.89,2.85 14,2.85 16.2,0 24.31,-6.39 24.31,-19.19 0,-4.28 -1.62,-8.04 -4.89,-11.24 -3.28,-3.18 -9.4,-6.71 -18.37,-10.57 -9.92,-4.18 -16.98,-8.62 -21.17,-13.25 -4.18,-4.67 -6.28,-10.47 -6.28,-17.44 0,-8.36 3.33,-15.23 9.98,-20.67 6.64,-5.44 15,-8.17 25.08,-8.17 8.98,0 16.75,1.78 23.33,5.41l0 11.76c-7.84,-5.06 -16.04,-7.58 -24.59,-7.58 -6.65,0 -12.09,1.65 -16.33,5.02 -4.21,3.33 -6.35,7.87 -6.35,13.57 0,3.67 0.61,6.61 1.81,8.88 1.2,2.24 3.21,4.31 6.03,6.25 2.82,1.94 7.45,4.31 13.9,7.17 11.63,5.19 19.38,9.85 23.17,14 3.79,4.15 5.7,9.69 5.7,16.59 0,8.65 -3.34,15.65 -10.01,21.03 -6.68,5.35 -15.43,8 -26.25,8 -10.27,0 -18.83,-2.37 -25.73,-7.13z"/>
  <path id="14" class="fil1" d="M7043.24 901.27l0 -12.35c3.21,2.79 7.45,5.15 12.67,7.03 5.22,1.91 9.89,2.85 14,2.85 16.2,0 24.31,-6.39 24.31,-19.19 0,-4.28 -1.62,-8.04 -4.89,-11.24 -3.28,-3.18 -9.4,-6.71 -18.37,-10.57 -9.92,-4.18 -16.98,-8.62 -21.17,-13.25 -4.18,-4.67 -6.28,-10.47 -6.28,-17.44 0,-8.36 3.33,-15.23 9.98,-20.67 6.64,-5.44 15,-8.17 25.08,-8.17 8.98,0 16.75,1.78 23.33,5.41l0 11.76c-7.84,-5.06 -16.04,-7.58 -24.59,-7.58 -6.65,0 -12.09,1.65 -16.33,5.02 -4.21,3.33 -6.35,7.87 -6.35,13.57 0,3.67 0.61,6.61 1.81,8.88 1.2,2.24 3.21,4.31 6.03,6.25 2.82,1.94 7.45,4.31 13.9,7.17 11.63,5.19 19.38,9.85 23.17,14 3.79,4.15 5.7,9.69 5.7,16.59 0,8.65 -3.34,15.65 -10.01,21.03 -6.68,5.35 -15.43,8 -26.25,8 -10.27,0 -18.83,-2.37 -25.73,-7.13z"/>
 </g>
</svg>
