<?xml version="1.0" encoding="UTF-8"?>
<!DOCTYPE svg PUBLIC "-//W3C//DTD SVG 1.1//EN" "http://www.w3.org/Graphics/SVG/1.1/DTD/svg11.dtd">
<!-- Creator: CorelDRAW 2017 -->
<svg xmlns="http://www.w3.org/2000/svg" xml:space="preserve" width="8.5in" height="2.684in" version="1.1" style="shape-rendering:geometricPrecision; text-rendering:geometricPrecision; image-rendering:optimizeQuality; fill-rule:evenodd; clip-rule:evenodd"
viewBox="0 0 8500 2684"
 xmlns:xlink="http://www.w3.org/1999/xlink">
 <defs>
  <style type="text/css">
   <![CDATA[
    .str0 {stroke:#373435;stroke-width:6.94;stroke-miterlimit:2.61313}
    .fil0 {fill:#A8518A}
    .fil1 {fill:#FEFEFE;fill-rule:nonzero}
   ]]>
  </style>
 </defs>
 <g id="Layer_x0020_1">
  <metadata id="CorelCorpID_0Corel-Layer"/>
  <rect class="fil0 str0" x="3.44" y="5.83" width="8540.74" height="2678.17"/>
  <path class="fil1" d="M2879.8 691.67c-3.04,0 -5.54,-1.04 -7.58,-3.17 -2.04,-2.12 -3.04,-4.67 -3.04,-7.67 0,-3.13 1.04,-5.63 3.17,-7.58 2.13,-1.96 4.58,-2.92 7.46,-2.92 2.92,0 5.46,0.96 7.63,2.87 2.17,1.88 3.21,4.42 3.21,7.63 0,2.83 -1,5.37 -3.08,7.54 -2.08,2.21 -4.67,3.29 -7.75,3.29zm6.83 169.08l-13.67 0 0 -135 13.67 0 0 135z"/>
  <path id="1" class="fil1" d="M2984.89 859.04c-6.13,2.92 -12.17,4.37 -18.21,4.37 -20.5,0 -30.75,-12.17 -30.75,-36.5l0 -88.83 -24.17 0 0 -12.33 24.17 0 0 -34.67 13.67 -4.67 0 39.33 35.29 0 0 12.33 -35.29 0 0 78.71c0,10.17 0.58,17.5 1.79,21.91 1.17,4.46 3.08,7.67 5.79,9.67 2.67,1.96 6.62,2.96 11.83,2.96 5.13,0 10.42,-1.63 15.88,-4.87l0 12.58z"/>
  <path id="2" class="fil1" d="M3060.47 854.87l0 -15.88c4.12,3.59 9.58,6.63 16.29,9.04 6.71,2.46 12.71,3.67 18,3.67 20.83,0 31.25,-8.21 31.25,-24.67 0,-5.5 -2.08,-10.33 -6.29,-14.46 -4.21,-4.09 -12.08,-8.63 -23.63,-13.59 -12.75,-5.37 -21.83,-11.08 -27.21,-17.04 -5.37,-6 -8.08,-13.46 -8.08,-22.42 0,-10.75 4.29,-19.58 12.83,-26.58 8.54,-7 19.29,-10.5 32.25,-10.5 11.54,0 21.54,2.29 30,6.96l0 15.13c-10.08,-6.5 -20.62,-9.75 -31.62,-9.75 -8.54,0 -15.54,2.12 -21,6.46 -5.42,4.29 -8.17,10.13 -8.17,17.46 0,4.71 0.79,8.5 2.33,11.42 1.54,2.87 4.13,5.54 7.75,8.04 3.62,2.5 9.58,5.54 17.87,9.21 14.96,6.67 24.92,12.67 29.79,18 4.87,5.33 7.33,12.46 7.33,21.33 0,11.13 -4.3,20.13 -12.88,27.04 -8.58,6.87 -19.83,10.29 -33.75,10.29 -13.21,0 -24.21,-3.04 -33.08,-9.17z"/>
  <path id="3" class="fil1" d="M3431.05 860.75l-13.67 0 0 -80.58c0,-16.08 -2.5,-27.71 -7.46,-34.79 -4.96,-7.04 -13.37,-10.58 -25.25,-10.58 -6.75,0 -13.08,2.08 -19,6.25 -5.88,4.21 -10.58,9.96 -14.04,17.25 -3.46,7.25 -5.17,15.17 -5.17,23.7l0 78.75 -13.54 0 0 -81.79c0,-29.46 -11.29,-44.17 -33.83,-44.17 -10.67,0 -19.59,4.46 -26.75,13.46 -7.13,9 -10.71,20.63 -10.71,34.87l0 77.63 -13.67 0 0 -135 13.67 0 0 22.33 0.58 0c9.38,-17.09 23.17,-25.63 41.38,-25.63 9.46,0 17.75,2.75 24.87,8.21 7.13,5.5 11.87,12.87 14.33,22.17 4.38,-9.58 10.42,-17.08 18.13,-22.37 7.71,-5.33 16.29,-8 25.83,-8 29.54,0 44.29,18.25 44.29,54.79l0 83.5z"/>
  <path id="4" class="fil1" d="M3526.13 864.04c-19.29,0 -34.79,-6.37 -46.58,-19.17 -11.75,-12.79 -17.63,-29.67 -17.63,-50.67 0,-22.12 6,-39.62 17.96,-52.46 11.96,-12.87 28,-19.29 48.08,-19.29 19.46,0 34.75,6.33 45.92,19.04 11.13,12.67 16.71,29.96 16.71,51.88 0,21.08 -5.79,38.12 -17.37,51.12 -11.63,13.04 -27.3,19.54 -47.09,19.54zm1.09 -129.25c-15.75,0 -28.21,5.29 -37.33,15.96 -9.13,10.67 -13.67,25.21 -13.67,43.58 0,17.58 4.58,31.54 13.7,41.87 9.17,10.33 21.46,15.5 36.83,15.5 15.71,0 27.87,-5.12 36.54,-15.37 8.67,-10.25 13,-24.63 13,-43.08 0,-18.79 -4.29,-33.25 -12.88,-43.33 -8.58,-10.08 -20.62,-15.12 -36.2,-15.12z"/>
  <path id="5" class="fil1" d="M3688.97 739.91c-3.92,-2.96 -8.79,-4.42 -14.63,-4.42 -11.25,0 -20.17,5.54 -26.79,16.63 -6.67,11.04 -9.96,25.87 -9.96,44.42l0 64.21 -13.42 0 0 -135 13.42 0 0 29.54 0.58 0c3.21,-10.33 8.13,-18.3 14.79,-23.88 6.67,-5.58 14.25,-8.37 22.71,-8.37 4.96,0 9.37,0.83 13.29,2.46l0 14.42z"/>
  <path id="6" class="fil1" d="M3817.89 794.46l-99.25 0c0,17.75 4.17,31.71 12.5,41.96 8.33,10.21 20,15.29 35,15.29 15.12,0 29.7,-5.46 43.79,-16.33l0 14.04c-13.67,9.75 -29.25,14.63 -46.75,14.63 -18.13,0 -32.5,-6.37 -43,-19.17 -10.54,-12.79 -15.83,-30.17 -15.83,-52.13 0,-12.92 2.63,-24.83 7.83,-35.63 5.21,-10.83 12.46,-19.33 21.79,-25.46 9.29,-6.17 19.71,-9.21 31.17,-9.21 16.67,0 29.67,5.83 38.87,17.5 9.25,11.67 13.87,27.79 13.87,48.29l0 6.21zm-14.29 -12.08c-0.42,-15.21 -4,-26.96 -10.75,-35.21 -6.75,-8.25 -16.17,-12.37 -28.2,-12.37 -12.42,0 -22.67,4.12 -30.63,12.41 -7.96,8.33 -12.92,20.04 -14.87,35.17l84.46 0z"/>
  <path id="7" class="fil1" d="M3985.47 674.58c-3.59,-2.42 -8.5,-3.67 -14.79,-3.67 -16.33,0 -24.54,10.88 -24.54,32.63l0 22.21 35.04 0 0 12.33 -35.04 0 0 122.67 -13.67 0 0 -122.67 -24.04 0 0 -12.33 24.04 0 0 -23.21c0,-13.17 3.54,-23.79 10.58,-31.87 7.04,-8.04 16.33,-12.08 27.87,-12.08 5.79,0 10.63,0.87 14.54,2.58l0 13.42z"/>
  <path id="8" class="fil1" d="M4103.72 860.75l-13.8 0 0 -24.04 -0.46 0c-9.29,18.21 -23.71,27.33 -43.21,27.33 -32,0 -48,-19.92 -48,-59.79l0 -78.5 13.79 0 0 75.42c0,17.33 2.96,30.08 8.79,38.29 5.88,8.17 15.17,12.25 27.96,12.25 12.46,0 22.42,-4.54 29.92,-13.58 7.5,-9.08 11.2,-21 11.2,-35.71l0 -76.67 13.8 0 0 135z"/>
  <path id="9" class="fil1" d="M4252.18 860.75l-13.54 0 0 -78.37c0,-31.75 -11.54,-47.58 -34.54,-47.58 -8.33,0 -15.8,2.12 -22.42,6.46 -6.63,4.29 -11.79,10.21 -15.5,17.75 -3.71,7.54 -5.54,15.67 -5.54,24.38l0 77.37 -13.67 0 0 -135 13.67 0 0 24.17 0.58 0c9.88,-18.33 25.17,-27.46 45.92,-27.46 14.58,0 25.71,4.83 33.46,14.58 7.7,9.71 11.58,23.58 11.58,41.54l0 82.17z"/>
  <path id="10" class="fil1" d="M4497.38 804.7l-0.46 0c-7.75,20.92 -20.63,31.38 -38.59,31.38 -12.21,0 -21.91,-4.42 -29.12,-13.25 -7.21,-8.83 -10.79,-20.67 -10.79,-35.58 0,-13.08 2.29,-25 6.96,-35.71 4.63,-10.67 11.08,-19.04 19.42,-25 8.29,-6 17.71,-9 28.29,-9 6.29,0 12.08,1.67 17.42,4.96 5.33,3.3 8.87,7.5 10.67,12.63l0.5 0 1.33 -15.75 12.33 0 -6.58 76.54c0,18.96 6.46,28.46 19.42,28.46 10.79,0 19.67,-5.54 26.54,-16.67 6.87,-11.12 10.29,-25.04 10.29,-41.79 0,-17.17 -3.67,-32.29 -10.96,-45.29 -7.33,-13.04 -17.79,-23 -31.37,-29.92 -13.58,-6.91 -29.46,-10.37 -47.63,-10.37 -17.87,0 -34,4.29 -48.33,12.87 -14.33,8.59 -25.54,20.59 -33.63,36 -8.08,15.42 -12.17,32.25 -12.17,50.5 0,18.79 3.83,35.33 11.41,49.63 7.63,14.25 18.5,25.25 32.67,32.87 14.17,7.67 30.5,11.46 49.08,11.5 21.96,-0.04 40.63,-3.83 56.04,-11.5l0 13.09c-16.87,6.83 -36,10.25 -57.37,10.25 -20.63,0 -38.96,-4.46 -55.08,-13.33 -16.08,-8.87 -28.5,-21.33 -37.21,-37.46 -8.71,-16.13 -13.08,-34.42 -13.08,-54.92 0,-21.08 4.87,-40.17 14.58,-57.21 9.75,-17.04 22.92,-30.29 39.5,-39.79 16.58,-9.5 34.87,-14.21 54.83,-14.21 19.5,0 37.13,4.04 52.79,12.13 15.67,8.08 27.83,19.5 36.5,34.25 8.67,14.71 13,31.33 13,49.8 0,13.29 -2.21,25.41 -6.54,36.37 -4.37,11 -10.42,19.58 -18.12,25.71 -7.75,6.12 -16.25,9.21 -25.54,9.21 -19.42,0 -29.75,-10.46 -31,-31.38zm-24.75 -75.41c-12.29,0 -22.17,5.25 -29.54,15.79 -7.42,10.54 -11.13,24.37 -11.13,41.46 0,11.79 2.54,21.04 7.58,27.71 5.04,6.67 11.88,10 20.5,10 11.63,0 20.96,-5.96 27.96,-17.83 7,-11.87 10.5,-27.29 10.5,-46.25 0,-10.25 -2.29,-17.96 -6.83,-23.13 -4.58,-5.17 -10.92,-7.75 -19.04,-7.75z"/>
  <path id="11" class="fil1" d="M3005.89 705.5l0 -25.5 23.5 0 0 20.25c0,10.83 -1.25,18.67 -3.79,23.42 -3.54,6.58 -9,11.5 -16.46,14.83l-5.25 -8.67c4.42,-1.79 7.67,-4.58 9.83,-8.46 2.17,-3.83 3.37,-9.13 3.62,-15.88l-11.46 0z"/>
  <path id="12" class="fil1" d="M4752.42 710.58l0 150.17 -29.08 0 0 -378.17 93 0c39.75,0 69.92,9.25 90.5,27.67 20.58,18.5 30.83,45 30.83,79.5 0,36.33 -11.91,65.5 -35.83,87.67 -24,22.08 -55.92,33.17 -96,33.17l-53.42 0zm0 -201.17l0 174.58 52.5 0c33.33,0 58.83,-8 76.33,-23.91 17.58,-16 26.41,-38.42 26.41,-67.42 0,-55.5 -32.17,-83.25 -96.41,-83.25l-58.83 0z"/>
  <path id="13" class="fil1" d="M5173.5 867.33c-34.5,0 -65.08,-8 -91.92,-24 -26.75,-16.08 -47.42,-38.75 -62,-68.17 -14.58,-29.33 -21.83,-62.5 -21.83,-99.5 0,-39.5 7.42,-74.5 22.25,-104.92 14.75,-30.5 36,-53.83 63.67,-70.08 27.67,-16.33 59.92,-24.42 96.67,-24.42 33.42,0 63.09,7.83 89.17,23.67 26,15.75 46.25,38.17 60.75,67.25 14.5,29.08 21.75,62.08 21.75,99 0,40.5 -7.17,76 -21.58,106.33 -14.42,30.33 -35.17,53.75 -62.25,70.17 -27.17,16.42 -58.67,24.67 -94.67,24.67zm2.75 -364.5c-28.33,0 -53.92,7.17 -76.67,21.58 -22.83,14.42 -40.5,34.58 -53,60.58 -12.5,25.92 -18.83,55.17 -18.83,87.75 0,33.42 6,62.83 17.83,88.25 11.92,25.5 28.92,45.17 51,59 22.17,13.83 47.67,20.75 76.42,20.75 46.42,0 82.83,-15.17 109.33,-45.58 26.42,-30.33 39.67,-71.83 39.67,-124.58 0,-52.25 -13,-93.25 -38.83,-123.09 -25.92,-29.75 -61.58,-44.67 -106.92,-44.67z"/>
  <path id="14" class="fil1" d="M5703.84 834.41c-38.92,21.92 -79.42,32.92 -121.59,32.92 -33.75,0 -63.83,-7.92 -90.5,-23.83 -26.58,-15.83 -47.17,-38.25 -61.75,-67.25 -14.58,-28.92 -21.83,-62 -21.83,-99.08 0,-38.25 8,-72.75 23.92,-103.42 15.92,-30.67 38.42,-54.58 67.5,-71.75 29.08,-17.17 61.92,-25.75 98.5,-25.75 34.67,0 67.33,6.67 97.92,20l0 32c-33.83,-16.92 -67.75,-25.42 -101.83,-25.42 -30.08,0 -57.08,7.17 -80.92,21.58 -23.83,14.42 -42.33,34.67 -55.41,60.83 -13.09,26.08 -19.67,55.42 -19.67,88 0,52.08 13.42,93 40.17,122.83 26.83,29.75 63.08,44.67 108.75,44.67 33.42,0 62.58,-7.17 87.67,-21.5l0 -121.58 -88.08 0 0 -26.33 117.17 0 0 163.08z"/>
  <polygon id="15" class="fil1" points="5856.42,482.58 5856.42,508.67 5819.33,508.67 5819.33,834.58 5856.42,834.58 5856.42,860.75 5753.42,860.75 5753.42,834.58 5790.5,834.58 5790.5,508.67 5753.42,508.67 5753.42,482.58 "/>
 </g>
</svg>
