<?xml version="1.0" encoding="UTF-8"?>
<!DOCTYPE svg PUBLIC "-//W3C//DTD SVG 1.1//EN" "http://www.w3.org/Graphics/SVG/1.1/DTD/svg11.dtd">
<!-- Creator: CorelDRAW 2017 -->
<svg xmlns="http://www.w3.org/2000/svg" xml:space="preserve" width="8.5in" height="2.684in" version="1.1" style="shape-rendering:geometricPrecision; text-rendering:geometricPrecision; image-rendering:optimizeQuality; fill-rule:evenodd; clip-rule:evenodd"
viewBox="0 0 8500 2684"
 xmlns:xlink="http://www.w3.org/1999/xlink">
 <defs>
  <style type="text/css">
   <![CDATA[
    .str0 {stroke:#373435;stroke-width:6.94;stroke-miterlimit:2.61313}
    .fil0 {fill:none}
    .fil1 {fill:#56B47C}
    .fil2 {fill:#56B4D9}
    .fil3 {fill:#FEFEFE;fill-rule:nonzero}
    .fil4 {fill:#FEFEFE;fill-rule:nonzero}
   ]]>
  </style>
 </defs>
 <g id="Layer_x0020_1">
  <metadata id="CorelCorpID_0Corel-Layer"/>
  <rect class="fil0 str0" x="-8.47" y="-0.11" width="8510.98" height="2684.23"/>
  <polygon class="fil1 str0" points="8502.52,-0.11 -8.46,-0.11 -8.46,2684.11 8502.52,2684.11 "/>
  <polygon class="fil2 str0" points="8502.52,-0.11 -8.46,-0.11 -8.46,2684.11 8502.52,2684.11 "/>
  <path class="fil3" d="M1689.48 802.52l0 150.17 -29.08 0 0 -378.17 93 0c39.75,0 69.92,9.25 90.5,27.67 20.58,18.5 30.83,45 30.83,79.5 0,36.33 -11.91,65.5 -35.83,87.67 -24,22.08 -55.92,33.17 -96,33.17l-53.42 0zm0 -201.17l0 174.58 52.5 0c33.33,0 58.83,-8 76.33,-23.91 17.58,-16 26.41,-38.42 26.41,-67.42 0,-55.5 -32.17,-83.25 -96.41,-83.25l-58.83 0z"/>
  <path id="1" class="fil3" d="M2110.56 959.27c-34.5,0 -65.08,-8 -91.92,-24 -26.75,-16.08 -47.42,-38.75 -62,-68.17 -14.58,-29.33 -21.83,-62.5 -21.83,-99.5 0,-39.5 7.42,-74.5 22.25,-104.92 14.75,-30.5 36,-53.83 63.67,-70.08 27.67,-16.33 59.92,-24.42 96.67,-24.42 33.42,0 63.09,7.83 89.17,23.67 26,15.75 46.25,38.17 60.75,67.25 14.5,29.08 21.75,62.08 21.75,99 0,40.5 -7.17,76 -21.58,106.33 -14.42,30.33 -35.17,53.75 -62.25,70.17 -27.17,16.42 -58.67,24.67 -94.67,24.67zm2.75 -364.5c-28.33,0 -53.92,7.17 -76.67,21.58 -22.83,14.42 -40.5,34.58 -53,60.58 -12.5,25.92 -18.83,55.17 -18.83,87.75 0,33.42 6,62.83 17.83,88.25 11.92,25.5 28.92,45.17 51,59 22.17,13.83 47.67,20.75 76.42,20.75 46.42,0 82.83,-15.17 109.33,-45.58 26.42,-30.33 39.67,-71.83 39.67,-124.58 0,-52.25 -13,-93.25 -38.83,-123.09 -25.92,-29.75 -61.58,-44.67 -106.92,-44.67z"/>
  <path id="2" class="fil3" d="M2640.89 926.35c-38.92,21.92 -79.42,32.92 -121.59,32.92 -33.75,0 -63.83,-7.92 -90.5,-23.83 -26.58,-15.83 -47.17,-38.25 -61.75,-67.25 -14.58,-28.92 -21.83,-62 -21.83,-99.08 0,-38.25 8,-72.75 23.92,-103.42 15.92,-30.67 38.42,-54.58 67.5,-71.75 29.08,-17.17 61.92,-25.75 98.5,-25.75 34.67,0 67.33,6.67 97.92,20l0 32c-33.83,-16.92 -67.75,-25.42 -101.83,-25.42 -30.08,0 -57.08,7.17 -80.92,21.58 -23.83,14.42 -42.33,34.67 -55.41,60.83 -13.09,26.08 -19.67,55.42 -19.67,88 0,52.08 13.42,93 40.17,122.83 26.83,29.75 63.08,44.67 108.75,44.67 33.42,0 62.58,-7.17 87.67,-21.5l0 -121.58 -88.08 0 0 -26.33 117.17 0 0 163.08z"/>
  <polygon id="3" class="fil3" points="2793.48,574.52 2793.48,600.61 2756.39,600.61 2756.39,926.52 2793.48,926.52 2793.48,952.69 2690.48,952.69 2690.48,926.52 2727.56,926.52 2727.56,600.61 2690.48,600.61 2690.48,574.52 "/>
  <polygon id="4" class="fil3" points="4198.06,952.69 4017.4,952.69 4017.4,574.52 4046.48,574.52 4046.48,926.35 4198.06,926.35 "/>
  <path id="5" class="fil3" d="M4369.4 959.27c-38.58,0 -69.58,-12.75 -93.17,-38.33 -23.5,-25.58 -35.25,-59.33 -35.25,-101.33 0,-44.25 12,-79.25 35.92,-104.92 23.92,-25.75 56,-38.58 96.17,-38.58 38.92,0 69.5,12.67 91.83,38.08 22.25,25.33 33.42,59.92 33.42,103.75 0,42.17 -11.59,76.25 -34.75,102.25 -23.25,26.08 -54.58,39.08 -94.17,39.08zm2.17 -258.5c-31.5,0 -56.42,10.58 -74.67,31.92 -18.25,21.33 -27.33,50.42 -27.33,87.17 0,35.17 9.17,63.08 27.42,83.75 18.33,20.67 42.92,31 73.67,31 31.42,0 55.75,-10.25 73.08,-30.75 17.33,-20.5 26,-49.25 26,-86.17 0,-37.58 -8.58,-66.5 -25.75,-86.67 -17.17,-20.17 -41.25,-30.25 -72.42,-30.25z"/>
  <path id="6" class="fil3" d="M4775.89 952.69l-27.08 0 0 -156.75c0,-63.5 -23.08,-95.17 -69.08,-95.17 -16.67,0 -31.58,4.25 -44.83,12.92 -13.25,8.58 -23.58,20.42 -31,35.5 -7.41,15.08 -11.08,31.33 -11.08,48.75l0 154.75 -27.33 0 0 -270 27.33 0 0 48.33 1.17 0c19.75,-36.67 50.33,-54.92 91.83,-54.92 29.17,0 51.42,9.67 66.92,29.17 15.42,19.42 23.17,47.17 23.17,83.08l0 164.33z"/>
  <path id="7" class="fil3" d="M5075.73 932.44c0,49.92 -11.17,86.92 -33.5,110.92 -22.25,24 -57,36.09 -104.25,36.09 -27.33,0 -54.5,-6.83 -81.5,-20.33l0 -28.08c28.83,16 56.17,24 82,24 73.08,0 109.67,-38.75 109.67,-116.25l0 -34.17 -1 0c-21,36.42 -53.25,54.67 -96.67,54.67 -34.17,0 -61.5,-12.33 -81.92,-37.08 -20.42,-24.75 -30.67,-57.83 -30.67,-99.17 0,-28.5 5.17,-53.92 15.5,-76.25 10.33,-22.42 25,-39.75 44,-52.17 18.92,-12.33 40.33,-18.5 64.25,-18.5 39.42,0 67.92,16.08 85.5,48.33l1 0 0 -41.75 27.59 0 0 249.75zm-27.59 -94l0 -51.25c0,-24.25 -8.17,-44.75 -24.33,-61.42 -16.17,-16.67 -36.42,-25 -60.67,-25 -29.17,0 -52.5,10.92 -70.17,32.83 -17.67,21.83 -26.5,50.92 -26.5,87.25 0,35 8,62.67 23.92,83.17 15.92,20.41 37.5,30.58 64.67,30.58 17.75,0 33.83,-4.17 48.17,-12.42 14.25,-8.33 25.33,-19.92 33.17,-34.67 7.83,-14.83 11.75,-31.17 11.75,-49.09z"/>
  <path id="8" class="fil3" d="M3743.09 931.95l-0.52 0 0 20.74 -12.15 0 0 -177.63 12.15 0 0 81.7 0.52 0c4.15,-8.37 10.11,-15 17.93,-19.81 7.81,-4.78 16.59,-7.19 26.37,-7.19 14.96,0 26.81,5.26 35.59,15.78 8.74,10.52 13.11,24.81 13.11,42.93 0,13.07 -2.22,24.74 -6.74,34.96 -4.48,10.26 -10.85,18.19 -19.07,23.78 -8.26,5.59 -17.59,8.41 -28,8.41 -17.67,0 -30.7,-7.89 -39.19,-23.67zm-0.52 -45.22l0 15.41c0,7.74 1.74,14.93 5.19,21.52 3.48,6.63 8.3,11.78 14.44,15.48 6.15,3.67 13,5.52 20.52,5.52 7.89,0 14.93,-2.3 21.15,-6.93 6.22,-4.63 11.04,-11.22 14.44,-19.78 3.37,-8.52 5.07,-18.33 5.07,-29.37 0,-14.33 -3.41,-25.89 -10.26,-34.67 -6.81,-8.81 -16.07,-13.19 -27.7,-13.19 -8.33,0 -15.74,1.96 -22.26,5.89 -6.48,3.96 -11.56,9.44 -15.19,16.52 -3.63,7.04 -5.41,14.89 -5.41,23.59z"/>
  <path id="9" class="fil3" d="M3958.27 893.76l-88.22 0c0,15.78 3.7,28.19 11.11,37.3 7.41,9.07 17.78,13.59 31.11,13.59 13.44,0 26.41,-4.85 38.93,-14.52l0 12.48c-12.15,8.67 -26,13 -41.56,13 -16.11,0 -28.89,-5.67 -38.22,-17.04 -9.37,-11.37 -14.07,-26.81 -14.07,-46.33 0,-11.48 2.33,-22.07 6.96,-31.67 4.63,-9.63 11.07,-17.19 19.37,-22.63 8.26,-5.48 17.52,-8.19 27.7,-8.19 14.81,0 26.37,5.19 34.56,15.56 8.22,10.37 12.33,24.7 12.33,42.93l0 5.52zm-12.7 -10.74c-0.37,-13.52 -3.56,-23.96 -9.56,-31.3 -6,-7.33 -14.37,-11 -25.07,-11 -11.04,0 -20.15,3.67 -27.22,11.04 -7.07,7.41 -11.48,17.81 -13.22,31.26l75.07 0z"/>
  <path id="10" class="fil3" d="M5244.95 952.69l-9.11 0 0 -17.33 -0.33 0c-2.78,5.86 -6.86,10.59 -12.3,14.17 -5.42,3.58 -11.42,5.36 -17.97,5.36 -8.42,0 -15.17,-2.33 -20.31,-7 -5.11,-4.67 -7.69,-10.83 -7.69,-18.47 0,-16.06 10.33,-25.61 31,-28.64l27.61 -4.08c0,-18.67 -7.11,-27.97 -21.33,-27.97 -10.09,0 -19.75,3.92 -28.97,11.78l0 -10.56c3.75,-2.83 8.47,-5.11 14.17,-6.86 5.69,-1.72 10.92,-2.58 15.69,-2.58 9.56,0 16.86,2.83 21.94,8.53 5.06,5.69 7.61,14.08 7.61,25.17l0 58.5zm-9.11 -47.94l-24.25 3.5c-9.67,1.42 -16.2,3.61 -19.64,6.61 -3.41,2.97 -5.11,7.67 -5.11,14.09 0,5.3 1.75,9.58 5.28,12.83 3.53,3.28 8.33,4.89 14.42,4.89 5.41,0 10.39,-1.42 14.89,-4.28 4.5,-2.83 8.03,-6.8 10.58,-11.86 2.56,-5.08 3.83,-10.75 3.83,-16.97l0 -8.81z"/>
  <path id="11" class="fil3" d="M5342.12 952.69l-9.03 0 0 -52.25c0,-21.17 -7.69,-31.72 -23.03,-31.72 -5.56,0 -10.53,1.42 -14.94,4.31 -4.42,2.86 -7.86,6.8 -10.33,11.83 -2.47,5.03 -3.69,10.44 -3.69,16.25l0 51.58 -9.11 0 0 -90 9.11 0 0 16.11 0.39 0c6.58,-12.22 16.78,-18.3 30.61,-18.3 9.72,0 17.14,3.22 22.31,9.72 5.14,6.47 7.72,15.72 7.72,27.7l0 54.78z"/>
  <path id="12" class="fil3" d="M5442.06 952.69l-9.19 0 0 -16.19 -0.33 0c-3.03,5.8 -7.39,10.33 -13.03,13.56 -5.64,3.22 -12.03,4.83 -19.19,4.83 -7.39,0 -13.92,-1.83 -19.58,-5.5 -5.67,-3.64 -10.08,-8.97 -13.22,-15.94 -3.14,-6.97 -4.72,-15 -4.72,-24.14 0,-9.36 1.75,-17.8 5.22,-25.3 3.47,-7.47 8.33,-13.28 14.64,-17.36 6.3,-4.11 13.41,-6.14 21.39,-6.14 13.31,0 22.81,5.42 28.5,16.28l0.33 0 0 -57.3 9.19 0 0 133.22zm-9.19 -38.42l0 -16.19c0,-8.36 -2.67,-15.33 -8,-20.94 -5.31,-5.61 -12.19,-8.42 -20.67,-8.42 -9.53,0 -17.25,3.61 -23.11,10.89 -5.86,7.28 -8.78,16.94 -8.78,29.06 0,11.56 2.61,20.78 7.81,27.67 5.22,6.89 12.36,10.33 21.41,10.33 9.39,0 16.94,-3 22.7,-9.03 5.75,-6.03 8.64,-13.81 8.64,-23.36z"/>
  <path id="13" class="fil3" d="M5524.73 839.97c-2.03,0 -3.69,-0.7 -5.06,-2.11 -1.36,-1.42 -2.03,-3.11 -2.03,-5.11 0,-2.08 0.69,-3.75 2.11,-5.06 1.42,-1.3 3.06,-1.94 4.97,-1.94 1.94,0 3.64,0.64 5.08,1.92 1.44,1.25 2.14,2.94 2.14,5.08 0,1.89 -0.67,3.59 -2.06,5.03 -1.39,1.47 -3.11,2.2 -5.17,2.2zm4.56 112.72l-9.11 0 0 -90 9.11 0 0 90z"/>
  <path id="14" class="fil3" d="M5628.31 952.69l-9.03 0 0 -52.25c0,-21.17 -7.69,-31.72 -23.03,-31.72 -5.56,0 -10.53,1.42 -14.94,4.31 -4.42,2.86 -7.86,6.8 -10.33,11.83 -2.47,5.03 -3.69,10.44 -3.69,16.25l0 51.58 -9.11 0 0 -90 9.11 0 0 16.11 0.39 0c6.58,-12.22 16.78,-18.3 30.61,-18.3 9.72,0 17.14,3.22 22.31,9.72 5.14,6.47 7.72,15.72 7.72,27.7l0 54.78z"/>
  <path id="15" class="fil3" d="M5692.04 951.55c-4.08,1.94 -8.11,2.92 -12.14,2.92 -13.67,0 -20.5,-8.11 -20.5,-24.33l0 -59.22 -16.11 0 0 -8.22 16.11 0 0 -23.11 9.11 -3.11 0 26.22 23.53 0 0 8.22 -23.53 0 0 52.47c0,6.78 0.39,11.67 1.19,14.61 0.78,2.97 2.06,5.11 3.86,6.44 1.78,1.3 4.42,1.97 7.89,1.97 3.42,0 6.94,-1.08 10.58,-3.25l0 8.39z"/>
  <path id="16" class="fil3" d="M5746.48 954.88c-12.86,0 -23.19,-4.25 -31.06,-12.78 -7.83,-8.53 -11.75,-19.78 -11.75,-33.78 0,-14.75 4,-26.41 11.97,-34.97 7.97,-8.58 18.67,-12.86 32.06,-12.86 12.97,0 23.17,4.22 30.61,12.69 7.42,8.44 11.14,19.97 11.14,34.58 0,14.06 -3.86,25.42 -11.58,34.08 -7.75,8.7 -18.19,13.03 -31.39,13.03zm0.72 -86.17c-10.5,0 -18.81,3.53 -24.89,10.64 -6.08,7.11 -9.11,16.81 -9.11,29.06 0,11.72 3.06,21.03 9.14,27.91 6.11,6.89 14.31,10.33 24.56,10.33 10.47,0 18.58,-3.42 24.36,-10.25 5.78,-6.83 8.67,-16.41 8.67,-28.72 0,-12.53 -2.86,-22.17 -8.58,-28.89 -5.72,-6.72 -13.75,-10.08 -24.14,-10.08z"/>
  <path id="17" class="fil3" d="M5897.76 951.55c-4.08,1.94 -8.11,2.92 -12.14,2.92 -13.67,0 -20.5,-8.11 -20.5,-24.33l0 -59.22 -16.11 0 0 -8.22 16.11 0 0 -23.11 9.11 -3.11 0 26.22 23.53 0 0 8.22 -23.53 0 0 52.47c0,6.78 0.39,11.67 1.19,14.61 0.78,2.97 2.06,5.11 3.86,6.44 1.78,1.3 4.42,1.97 7.89,1.97 3.42,0 6.94,-1.08 10.58,-3.25l0 8.39z"/>
  <path id="18" class="fil3" d="M5985.98 952.69l-9.03 0 0 -53.64c0,-10.47 -1.92,-18.14 -5.75,-23.03 -3.8,-4.89 -9.72,-7.31 -17.69,-7.31 -5.64,0 -10.61,1.42 -14.94,4.31 -4.3,2.86 -7.64,6.92 -10.03,12.17 -2.39,5.22 -3.58,11.08 -3.58,17.53l0 49.97 -9.11 0 0 -133.22 9.11 0 0 59.25 0.39 0c7.06,-12.17 17.28,-18.22 30.69,-18.22 9.86,0 17.33,3.08 22.36,9.3 5.06,6.22 7.58,15.25 7.58,27.14l0 55.75z"/>
  <path id="19" class="fil3" d="M6082.33 908.5l-66.17 0c0,11.83 2.78,21.14 8.33,27.97 5.56,6.8 13.33,10.19 23.33,10.19 10.08,0 19.81,-3.64 29.2,-10.89l0 9.36c-9.11,6.5 -19.5,9.75 -31.17,9.75 -12.08,0 -21.67,-4.25 -28.67,-12.78 -7.03,-8.53 -10.56,-20.11 -10.56,-34.75 0,-8.61 1.75,-16.56 5.22,-23.75 3.47,-7.22 8.31,-12.89 14.53,-16.97 6.2,-4.11 13.14,-6.14 20.78,-6.14 11.11,0 19.78,3.89 25.92,11.67 6.17,7.78 9.25,18.53 9.25,32.19l0 4.14zm-9.53 -8.06c-0.28,-10.14 -2.67,-17.97 -7.17,-23.47 -4.5,-5.5 -10.78,-8.25 -18.81,-8.25 -8.28,0 -15.11,2.75 -20.42,8.28 -5.3,5.56 -8.61,13.36 -9.91,23.44l56.3 0z"/>
  <path id="20" class="fil3" d="M6149.06 948.77l0 -10.58c2.75,2.39 6.39,4.42 10.86,6.03 4.47,1.64 8.47,2.44 12,2.44 13.89,0 20.83,-5.47 20.83,-16.44 0,-3.67 -1.39,-6.89 -4.2,-9.64 -2.8,-2.72 -8.06,-5.75 -15.75,-9.06 -8.5,-3.58 -14.56,-7.39 -18.14,-11.36 -3.59,-4 -5.39,-8.97 -5.39,-14.94 0,-7.17 2.86,-13.06 8.56,-17.72 5.69,-4.67 12.86,-7 21.5,-7 7.69,0 14.36,1.53 20,4.64l0 10.08c-6.72,-4.33 -13.75,-6.5 -21.08,-6.5 -5.7,0 -10.36,1.42 -14,4.31 -3.61,2.86 -5.44,6.75 -5.44,11.64 0,3.14 0.53,5.67 1.56,7.61 1.03,1.92 2.75,3.7 5.17,5.36 2.42,1.67 6.39,3.69 11.92,6.14 9.97,4.44 16.61,8.44 19.86,12 3.25,3.56 4.89,8.31 4.89,14.22 0,7.41 -2.86,13.41 -8.59,18.03 -5.72,4.58 -13.22,6.86 -22.5,6.86 -8.8,0 -16.14,-2.03 -22.06,-6.11z"/>
  <path id="21" class="fil3" d="M6294.89 952.69l-9.03 0 0 -53.64c0,-10.47 -1.92,-18.14 -5.75,-23.03 -3.8,-4.89 -9.72,-7.31 -17.69,-7.31 -5.64,0 -10.61,1.42 -14.94,4.31 -4.3,2.86 -7.64,6.92 -10.03,12.17 -2.39,5.22 -3.58,11.08 -3.58,17.53l0 49.97 -9.11 0 0 -133.22 9.11 0 0 59.25 0.39 0c7.06,-12.17 17.28,-18.22 30.69,-18.22 9.86,0 17.33,3.08 22.36,9.3 5.06,6.22 7.58,15.25 7.58,27.14l0 55.75z"/>
  <path id="22" class="fil3" d="M6358.36 954.88c-12.86,0 -23.19,-4.25 -31.06,-12.78 -7.83,-8.53 -11.75,-19.78 -11.75,-33.78 0,-14.75 4,-26.41 11.97,-34.97 7.97,-8.58 18.67,-12.86 32.06,-12.86 12.97,0 23.17,4.22 30.61,12.69 7.42,8.44 11.14,19.97 11.14,34.58 0,14.06 -3.86,25.42 -11.58,34.08 -7.75,8.7 -18.19,13.03 -31.39,13.03zm0.72 -86.17c-10.5,0 -18.81,3.53 -24.89,10.64 -6.08,7.11 -9.11,16.81 -9.11,29.06 0,11.72 3.06,21.03 9.14,27.91 6.11,6.89 14.31,10.33 24.56,10.33 10.47,0 18.58,-3.42 24.36,-10.25 5.78,-6.83 8.67,-16.41 8.67,-28.72 0,-12.53 -2.86,-22.17 -8.58,-28.89 -5.72,-6.72 -13.75,-10.08 -24.14,-10.08z"/>
  <path id="23" class="fil3" d="M6466.92 872.13c-2.61,-1.97 -5.86,-2.94 -9.75,-2.94 -7.5,0 -13.44,3.7 -17.86,11.08 -4.44,7.36 -6.64,17.25 -6.64,29.61l0 42.81 -8.94 0 0 -90 8.94 0 0 19.7 0.39 0c2.14,-6.89 5.42,-12.2 9.86,-15.92 4.44,-3.72 9.5,-5.58 15.14,-5.58 3.31,0 6.25,0.56 8.86,1.64l0 9.61z"/>
  <path id="24" class="fil3" d="M6520.22 951.55c-4.08,1.94 -8.11,2.92 -12.14,2.92 -13.67,0 -20.5,-8.11 -20.5,-24.33l0 -59.22 -16.11 0 0 -8.22 16.11 0 0 -23.11 9.11 -3.11 0 26.22 23.53 0 0 8.22 -23.53 0 0 52.47c0,6.78 0.39,11.67 1.19,14.61 0.78,2.97 2.06,5.11 3.86,6.44 1.78,1.3 4.42,1.97 7.89,1.97 3.42,0 6.94,-1.08 10.58,-3.25l0 8.39z"/>
  <path id="25" class="fil3" d="M6660.44 945.94c0,16.64 -3.72,28.97 -11.17,36.97 -7.42,8 -19,12.03 -34.75,12.03 -9.11,0 -18.17,-2.28 -27.17,-6.78l0 -9.36c9.61,5.33 18.72,8 27.33,8 24.36,0 36.56,-12.92 36.56,-38.75l0 -11.39 -0.33 0c-7,12.14 -17.75,18.22 -32.22,18.22 -11.39,0 -20.5,-4.11 -27.31,-12.36 -6.8,-8.25 -10.22,-19.28 -10.22,-33.06 0,-9.5 1.72,-17.97 5.17,-25.42 3.44,-7.47 8.33,-13.25 14.67,-17.39 6.3,-4.11 13.44,-6.17 21.41,-6.17 13.14,0 22.64,5.36 28.5,16.11l0.33 0 0 -13.92 9.19 0 0 83.25zm-9.19 -31.33l0 -17.08c0,-8.08 -2.72,-14.92 -8.11,-20.47 -5.39,-5.56 -12.14,-8.33 -20.22,-8.33 -9.72,0 -17.5,3.64 -23.39,10.94 -5.89,7.28 -8.83,16.97 -8.83,29.08 0,11.67 2.67,20.89 7.97,27.72 5.3,6.8 12.5,10.19 21.56,10.19 5.92,0 11.28,-1.39 16.06,-4.14 4.75,-2.78 8.44,-6.64 11.06,-11.56 2.61,-4.94 3.92,-10.39 3.92,-16.36z"/>
  <path id="26" class="fil3" d="M6732.44 872.13c-2.61,-1.97 -5.86,-2.94 -9.75,-2.94 -7.5,0 -13.44,3.7 -17.86,11.08 -4.44,7.36 -6.64,17.25 -6.64,29.61l0 42.81 -8.94 0 0 -90 8.94 0 0 19.7 0.39 0c2.14,-6.89 5.42,-12.2 9.86,-15.92 4.44,-3.72 9.5,-5.58 15.14,-5.58 3.31,0 6.25,0.56 8.86,1.64l0 9.61z"/>
  <path id="27" class="fil3" d="M6811.47 952.69l-9.11 0 0 -17.33 -0.33 0c-2.78,5.86 -6.86,10.59 -12.3,14.17 -5.42,3.58 -11.42,5.36 -17.97,5.36 -8.42,0 -15.17,-2.33 -20.31,-7 -5.11,-4.67 -7.69,-10.83 -7.69,-18.47 0,-16.06 10.33,-25.61 31,-28.64l27.61 -4.08c0,-18.67 -7.11,-27.97 -21.33,-27.97 -10.09,0 -19.75,3.92 -28.97,11.78l0 -10.56c3.75,-2.83 8.47,-5.11 14.17,-6.86 5.69,-1.72 10.92,-2.58 15.69,-2.58 9.56,0 16.86,2.83 21.94,8.53 5.06,5.69 7.61,14.08 7.61,25.17l0 58.5zm-9.11 -47.94l-24.25 3.5c-9.67,1.42 -16.2,3.61 -19.64,6.61 -3.41,2.97 -5.11,7.67 -5.11,14.09 0,5.3 1.75,9.58 5.28,12.83 3.53,3.28 8.33,4.89 14.42,4.89 5.41,0 10.39,-1.42 14.89,-4.28 4.5,-2.83 8.03,-6.8 10.58,-11.86 2.56,-5.08 3.83,-10.75 3.83,-16.97l0 -8.81z"/>
  <path id="28" class="fil3" d="M6833.78 948.77l0 -10.58c2.75,2.39 6.39,4.42 10.86,6.03 4.47,1.64 8.47,2.44 12,2.44 13.89,0 20.83,-5.47 20.83,-16.44 0,-3.67 -1.39,-6.89 -4.2,-9.64 -2.8,-2.72 -8.06,-5.75 -15.75,-9.06 -8.5,-3.58 -14.56,-7.39 -18.14,-11.36 -3.59,-4 -5.39,-8.97 -5.39,-14.94 0,-7.17 2.86,-13.06 8.56,-17.72 5.69,-4.67 12.86,-7 21.5,-7 7.69,0 14.36,1.53 20,4.64l0 10.08c-6.72,-4.33 -13.75,-6.5 -21.08,-6.5 -5.7,0 -10.36,1.42 -14,4.31 -3.61,2.86 -5.44,6.75 -5.44,11.64 0,3.14 0.53,5.67 1.56,7.61 1.03,1.92 2.75,3.7 5.17,5.36 2.42,1.67 6.39,3.69 11.92,6.14 9.97,4.44 16.61,8.44 19.86,12 3.25,3.56 4.89,8.31 4.89,14.22 0,7.41 -2.86,13.41 -8.59,18.03 -5.72,4.58 -13.22,6.86 -22.5,6.86 -8.8,0 -16.14,-2.03 -22.06,-6.11z"/>
  <path id="29" class="fil3" d="M6904.75 948.77l0 -10.58c2.75,2.39 6.39,4.42 10.86,6.03 4.47,1.64 8.47,2.44 12,2.44 13.89,0 20.83,-5.47 20.83,-16.44 0,-3.67 -1.39,-6.89 -4.2,-9.64 -2.8,-2.72 -8.06,-5.75 -15.75,-9.06 -8.5,-3.58 -14.56,-7.39 -18.14,-11.36 -3.59,-4 -5.39,-8.97 -5.39,-14.94 0,-7.17 2.86,-13.06 8.56,-17.72 5.69,-4.67 12.86,-7 21.5,-7 7.69,0 14.36,1.53 20,4.64l0 10.08c-6.72,-4.33 -13.75,-6.5 -21.08,-6.5 -5.7,0 -10.36,1.42 -14,4.31 -3.61,2.86 -5.44,6.75 -5.44,11.64 0,3.14 0.53,5.67 1.56,7.61 1.03,1.92 2.75,3.7 5.17,5.36 2.42,1.67 6.39,3.69 11.92,6.14 9.97,4.44 16.61,8.44 19.86,12 3.25,3.56 4.89,8.31 4.89,14.22 0,7.41 -2.86,13.41 -8.59,18.03 -5.72,4.58 -13.22,6.86 -22.5,6.86 -8.8,0 -16.14,-2.03 -22.06,-6.11z"/>
  <g id="Layer_x0020_1_0">
   <metadata id="CorelCorpID_1Corel-Layer"/>
   <polygon id="30" class="fil4" points="3267.44,952.69 3248.48,952.69 3248.48,574.52 3267.44,574.52 ">
    <metadata id="CorelCorpID_2">
     <odm name="Name" value="4" type="0"/>
    </metadata>
   </polygon>
  </g>
 </g>
</svg>
