<?xml version="1.0" encoding="UTF-8"?>
<!DOCTYPE svg PUBLIC "-//W3C//DTD SVG 1.1//EN" "http://www.w3.org/Graphics/SVG/1.1/DTD/svg11.dtd">
<!-- Creator: CorelDRAW 2017 -->
<svg xmlns="http://www.w3.org/2000/svg" xml:space="preserve" width="8.5in" height="2.684in" version="1.1" style="shape-rendering:geometricPrecision; text-rendering:geometricPrecision; image-rendering:optimizeQuality; fill-rule:evenodd; clip-rule:evenodd"
viewBox="0 0 8500 2684"
 xmlns:xlink="http://www.w3.org/1999/xlink">
 <defs>
  <style type="text/css">
   <![CDATA[
    .fil0 {fill:#7FBA00}
    .fil1 {fill:white}
    .fil2 {fill:#FEFEFE;fill-rule:nonzero}
   ]]>
  </style>
 </defs>
 <g id="Layer_x0020_1">
  <metadata id="CorelCorpID_0Corel-Layer"/>
  <polygon class="fil0" points="17.85,-0.1 8517.85,-0.1 8517.85,2684.11 17.85,2684.11 "/>
  <polygon class="fil1" points="3679.39,432.13 3671.93,432.13 3671.93,1103.18 3679.39,1103.18 "/>
  <path class="fil2" d="M2036.5 805.35l0 150.17 -29.08 0 0 -378.17 93 0c39.75,0 69.92,9.25 90.5,27.67 20.58,18.5 30.83,45 30.83,79.5 0,36.33 -11.91,65.5 -35.83,87.67 -24,22.08 -55.92,33.17 -96,33.17l-53.42 0zm0 -201.17l0 174.58 52.5 0c33.33,0 58.83,-8 76.33,-23.91 17.58,-16 26.41,-38.42 26.41,-67.42 0,-55.5 -32.17,-83.25 -96.41,-83.25l-58.83 0z"/>
  <path id="1" class="fil2" d="M2457.58 962.09c-34.5,0 -65.08,-8 -91.92,-24 -26.75,-16.08 -47.42,-38.75 -62,-68.17 -14.58,-29.33 -21.83,-62.5 -21.83,-99.5 0,-39.5 7.42,-74.5 22.25,-104.92 14.75,-30.5 36,-53.83 63.67,-70.08 27.67,-16.33 59.92,-24.42 96.67,-24.42 33.42,0 63.09,7.83 89.17,23.67 26,15.75 46.25,38.17 60.75,67.25 14.5,29.08 21.75,62.08 21.75,99 0,40.5 -7.17,76 -21.58,106.33 -14.42,30.33 -35.17,53.75 -62.25,70.17 -27.17,16.42 -58.67,24.67 -94.67,24.67zm2.75 -364.5c-28.33,0 -53.92,7.17 -76.67,21.58 -22.83,14.42 -40.5,34.58 -53,60.58 -12.5,25.92 -18.83,55.17 -18.83,87.75 0,33.42 6,62.83 17.83,88.25 11.92,25.5 28.92,45.17 51,59 22.17,13.83 47.67,20.75 76.42,20.75 46.42,0 82.83,-15.17 109.33,-45.58 26.42,-30.33 39.67,-71.83 39.67,-124.58 0,-52.25 -13,-93.25 -38.83,-123.09 -25.92,-29.75 -61.58,-44.67 -106.92,-44.67z"/>
  <path id="2" class="fil2" d="M2987.91 929.18c-38.92,21.92 -79.42,32.92 -121.59,32.92 -33.75,0 -63.83,-7.92 -90.5,-23.83 -26.58,-15.83 -47.17,-38.25 -61.75,-67.25 -14.58,-28.92 -21.83,-62 -21.83,-99.08 0,-38.25 8,-72.75 23.92,-103.42 15.92,-30.67 38.42,-54.58 67.5,-71.75 29.08,-17.17 61.92,-25.75 98.5,-25.75 34.67,0 67.33,6.67 97.92,20l0 32c-33.83,-16.92 -67.75,-25.42 -101.83,-25.42 -30.08,0 -57.08,7.17 -80.92,21.58 -23.83,14.42 -42.33,34.67 -55.41,60.83 -13.09,26.08 -19.67,55.42 -19.67,88 0,52.08 13.42,93 40.17,122.83 26.83,29.75 63.08,44.67 108.75,44.67 33.42,0 62.58,-7.17 87.67,-21.5l0 -121.58 -88.08 0 0 -26.33 117.17 0 0 163.08z"/>
  <polygon id="3" class="fil2" points="3140.5,577.35 3140.5,603.43 3103.41,603.43 3103.41,929.35 3140.5,929.35 3140.5,955.51 3037.5,955.51 3037.5,929.35 3074.58,929.35 3074.58,603.43 3037.5,603.43 3037.5,577.35 "/>
  <path class="fil2" d="M4228.04 927.56l-13.54 0 0 -78.37c0,-31.75 -11.54,-47.58 -34.54,-47.58 -8.33,0 -15.8,2.12 -22.42,6.46 -6.63,4.29 -11.79,10.21 -15.5,17.75 -3.71,7.54 -5.54,15.67 -5.54,24.38l0 77.37 -13.67 0 0 -135 13.67 0 0 24.17 0.58 0c9.88,-18.33 25.17,-27.46 45.92,-27.46 14.58,0 25.71,4.83 33.46,14.58 7.7,9.71 11.58,23.58 11.58,41.54l0 82.17z"/>
  <path id="1" class="fil2" d="M4323.24 930.85c-19.29,0 -34.79,-6.37 -46.58,-19.17 -11.75,-12.79 -17.63,-29.67 -17.63,-50.67 0,-22.12 6,-39.62 17.96,-52.46 11.96,-12.87 28,-19.29 48.08,-19.29 19.46,0 34.75,6.33 45.92,19.04 11.13,12.67 16.71,29.96 16.71,51.88 0,21.08 -5.79,38.12 -17.37,51.12 -11.63,13.04 -27.3,19.54 -47.09,19.54zm1.09 -129.25c-15.75,0 -28.21,5.29 -37.33,15.96 -9.13,10.67 -13.67,25.21 -13.67,43.58 0,17.58 4.58,31.54 13.7,41.87 9.17,10.33 21.46,15.5 36.83,15.5 15.71,0 27.87,-5.12 36.54,-15.37 8.67,-10.25 13,-24.63 13,-43.08 0,-18.79 -4.29,-33.25 -12.88,-43.33 -8.58,-10.08 -20.62,-15.12 -36.2,-15.12z"/>
  <path id="2" class="fil2" d="M4579.83 792.56l-41.62 135 -13.04 0 -29.17 -100.96c-0.83,-2.5 -1.54,-6.38 -2.08,-11.59l-0.75 0c-0.25,3.09 -1.08,6.88 -2.54,11.33l-32.5 101.21 -13.04 0 -40.79 -135 14.92 0 30.87 106.67c0.83,2.79 1.42,6.58 1.83,11.5l0.96 0c0.42,-3.67 1.25,-7.5 2.46,-11.5l33.79 -106.67 10.17 0 30.25 106.67c0.42,1.25 1.04,5.04 1.83,11.5l1.13 0c0,-2.62 0.71,-6.46 2.17,-11.5l31.25 -106.67 13.91 0z"/>
  <path id="3" class="fil2" d="M4694.2 904.22l-0.58 0 0 85.46 -13.67 0 0 -197.13 13.67 0 0 27.08 0.58 0c4.67,-9.42 11.38,-16.87 20.17,-22.29 8.79,-5.37 18.67,-8.08 29.67,-8.08 16.83,0 30.17,5.92 40.04,17.75 9.83,11.83 14.75,27.92 14.75,48.29 0,14.71 -2.54,27.88 -7.63,39.46 -5.08,11.63 -12.21,20.54 -21.37,26.75 -9.13,6.21 -19.67,9.33 -31.54,9.33 -19.7,0 -34.37,-8.87 -44.08,-26.63zm-0.58 -50.87l0 17.33c0,8.71 1.96,16.79 5.83,24.21 3.92,7.46 9.33,13.25 16.25,17.41 6.92,4.13 14.63,6.21 23.08,6.21 8.88,0 16.8,-2.58 23.8,-7.79 7,-5.21 12.41,-12.62 16.25,-22.25 3.79,-9.58 5.71,-20.63 5.71,-33.04 0,-16.13 -3.83,-29.13 -11.54,-39 -7.67,-9.92 -18.08,-14.83 -31.17,-14.83 -9.37,0 -17.71,2.2 -25.04,6.62 -7.29,4.46 -13,10.63 -17.08,18.58 -4.08,7.92 -6.08,16.75 -6.08,26.54z"/>
  <polygon id="4" class="fil2" points="4846.07,927.56 4832.41,927.56 4832.41,727.72 4846.07,727.72 "/>
  <path id="5" class="fil2" d="M4982.91 927.56l-13.67 0 0 -26 -0.5 0c-4.17,8.79 -10.29,15.87 -18.46,21.25 -8.13,5.38 -17.13,8.04 -26.96,8.04 -12.63,0 -22.75,-3.5 -30.46,-10.5 -7.67,-7 -11.54,-16.25 -11.54,-27.71 0,-24.08 15.5,-38.42 46.5,-42.96l41.41 -6.13c0,-28 -10.67,-41.96 -32,-41.96 -15.12,0 -29.62,5.87 -43.46,17.67l0 -15.83c5.63,-4.25 12.71,-7.67 21.25,-10.29 8.54,-2.58 16.37,-3.87 23.54,-3.87 14.33,0 25.29,4.25 32.92,12.79 7.58,8.54 11.42,21.13 11.42,37.75l0 87.75zm-13.67 -71.92l-36.37 5.25c-14.5,2.12 -24.29,5.41 -29.46,9.91 -5.13,4.46 -7.67,11.5 -7.67,21.13 0,7.96 2.63,14.37 7.92,19.25 5.29,4.92 12.5,7.33 21.63,7.33 8.13,0 15.58,-2.12 22.33,-6.41 6.75,-4.25 12.04,-10.21 15.87,-17.8 3.83,-7.62 5.75,-16.12 5.75,-25.46l0 -13.21z"/>
  <path id="6" class="fil2" d="M5123.66 792.56l-65.21 161.63c-5.21,13.08 -11,22.5 -17.46,28.17 -6.41,5.71 -14.12,8.58 -23.17,8.58 -4.25,0 -7.96,-0.62 -11.13,-1.83l0 -13.21c3.42,1.21 7.25,1.83 11.5,1.83 10.71,0 19.17,-7.29 25.25,-21.83l12.33 -29.29 -51.37 -134.04 15.25 0 42.96 118.87 0.63 0 3.04 -9.25 42.71 -109.63 14.67 0z"/>
  <path id="7" class="fil2" d="M5153.95 758.48c-3.04,0 -5.54,-1.04 -7.58,-3.17 -2.04,-2.12 -3.04,-4.67 -3.04,-7.67 0,-3.13 1.04,-5.63 3.17,-7.58 2.13,-1.96 4.58,-2.92 7.46,-2.92 2.92,0 5.46,0.96 7.63,2.87 2.17,1.88 3.21,4.42 3.21,7.63 0,2.83 -1,5.37 -3.08,7.54 -2.08,2.21 -4.67,3.29 -7.75,3.29zm6.83 169.08l-13.67 0 0 -135 13.67 0 0 135z"/>
  <path id="8" class="fil2" d="M5309.33 927.56l-13.54 0 0 -78.37c0,-31.75 -11.54,-47.58 -34.54,-47.58 -8.33,0 -15.8,2.12 -22.42,6.46 -6.63,4.29 -11.79,10.21 -15.5,17.75 -3.71,7.54 -5.54,15.67 -5.54,24.38l0 77.37 -13.67 0 0 -135 13.67 0 0 24.17 0.58 0c9.88,-18.33 25.17,-27.46 45.92,-27.46 14.58,0 25.71,4.83 33.46,14.58 7.7,9.71 11.58,23.58 11.58,41.54l0 82.17z"/>
  <path id="9" class="fil2" d="M5459.24 917.43c0,24.96 -5.58,43.46 -16.75,55.46 -11.13,12 -28.5,18.04 -52.13,18.04 -13.67,0 -27.25,-3.42 -40.75,-10.17l0 -14.04c14.41,8 28.08,12 41,12 36.54,0 54.83,-19.37 54.83,-58.12l0 -17.09 -0.5 0c-10.5,18.21 -26.63,27.33 -48.33,27.33 -17.09,0 -30.75,-6.17 -40.96,-18.54 -10.21,-12.37 -15.33,-28.91 -15.33,-49.58 0,-14.25 2.59,-26.96 7.75,-38.12 5.17,-11.21 12.5,-19.88 22,-26.09 9.46,-6.17 20.17,-9.25 32.13,-9.25 19.71,0 33.96,8.04 42.75,24.17l0.5 0 0 -20.87 13.79 0 0 124.87zm-13.79 -47l0 -25.63c0,-12.12 -4.08,-22.37 -12.17,-30.7 -8.08,-8.33 -18.21,-12.5 -30.33,-12.5 -14.58,0 -26.25,5.46 -35.08,16.41 -8.83,10.92 -13.25,25.46 -13.25,43.63 0,17.5 4,31.33 11.96,41.58 7.96,10.21 18.75,15.29 32.33,15.29 8.87,0 16.91,-2.08 24.08,-6.21 7.13,-4.17 12.67,-9.96 16.58,-17.33 3.92,-7.42 5.87,-15.58 5.87,-24.54z"/>
  <path id="10" class="fil2" d="M5583.24 758.48c-3.04,0 -5.54,-1.04 -7.58,-3.17 -2.04,-2.12 -3.04,-4.67 -3.04,-7.67 0,-3.13 1.04,-5.63 3.17,-7.58 2.13,-1.96 4.58,-2.92 7.46,-2.92 2.92,0 5.46,0.96 7.63,2.87 2.17,1.88 3.21,4.42 3.21,7.63 0,2.83 -1,5.37 -3.08,7.54 -2.08,2.21 -4.67,3.29 -7.75,3.29zm6.83 169.08l-13.67 0 0 -135 13.67 0 0 135z"/>
  <path id="11" class="fil2" d="M5688.32 925.85c-6.13,2.92 -12.17,4.37 -18.21,4.37 -20.5,0 -30.75,-12.17 -30.75,-36.5l0 -88.83 -24.17 0 0 -12.33 24.17 0 0 -34.67 13.67 -4.67 0 39.33 35.29 0 0 12.33 -35.29 0 0 78.71c0,10.17 0.58,17.5 1.79,21.91 1.17,4.46 3.08,7.67 5.79,9.67 2.67,1.96 6.62,2.96 11.83,2.96 5.13,0 10.42,-1.63 15.88,-4.87l0 12.58z"/>
  <path id="12" class="fil2" d="M5708.37 921.69l0 -15.88c4.12,3.59 9.58,6.63 16.29,9.04 6.71,2.46 12.71,3.67 18,3.67 20.83,0 31.25,-8.21 31.25,-24.67 0,-5.5 -2.08,-10.33 -6.29,-14.46 -4.21,-4.09 -12.08,-8.63 -23.63,-13.59 -12.75,-5.37 -21.83,-11.08 -27.21,-17.04 -5.37,-6 -8.08,-13.46 -8.08,-22.42 0,-10.75 4.29,-19.58 12.83,-26.58 8.54,-7 19.29,-10.5 32.25,-10.5 11.54,0 21.54,2.29 30,6.96l0 15.13c-10.08,-6.5 -20.62,-9.75 -31.62,-9.75 -8.54,0 -15.54,2.12 -21,6.46 -5.42,4.29 -8.17,10.13 -8.17,17.46 0,4.71 0.79,8.5 2.33,11.42 1.54,2.87 4.13,5.54 7.75,8.04 3.62,2.5 9.58,5.54 17.87,9.21 14.96,6.67 24.92,12.67 29.79,18 4.87,5.33 7.33,12.46 7.33,21.33 0,11.13 -4.3,20.13 -12.88,27.04 -8.58,6.87 -19.83,10.29 -33.75,10.29 -13.21,0 -24.21,-3.04 -33.08,-9.17z"/>
  <path id="13" class="fil2" d="M5931.11 927.56l0 -172.5c-11.12,10.5 -26.46,19.04 -45.87,25.67l0 -12.71c9.42,-3.17 18.46,-7.33 27.08,-12.5 8.63,-5.17 17.83,-12.25 27.58,-21.21l4.75 0 0 193.25 -13.54 0z"/>
  <path id="14" class="fil2" d="M6097.98 744.35c-17.33,31.71 -30.25,57 -38.75,75.79 -8.5,18.79 -15.58,37.04 -21.25,54.67 -5.63,17.67 -9.75,35.25 -12.37,52.75l-15.25 0c2.83,-17.5 7.13,-35.08 12.88,-52.75 5.75,-17.62 12.67,-35.46 20.75,-53.46 8.08,-17.96 20.17,-41.46 36.21,-70.42l-99 0 0 -12.46 116.79 0 0 5.87z"/>
  <path id="15" class="fil2" d="M6183.94 925.85c-6.13,2.92 -12.17,4.37 -18.21,4.37 -20.5,0 -30.75,-12.17 -30.75,-36.5l0 -88.83 -24.17 0 0 -12.33 24.17 0 0 -34.67 13.67 -4.67 0 39.33 35.29 0 0 12.33 -35.29 0 0 78.71c0,10.17 0.58,17.5 1.79,21.91 1.17,4.46 3.08,7.67 5.79,9.67 2.67,1.96 6.62,2.96 11.83,2.96 5.13,0 10.42,-1.63 15.88,-4.87l0 12.58z"/>
  <path id="16" class="fil2" d="M6316.28 927.56l-13.54 0 0 -80.46c0,-15.71 -2.87,-27.21 -8.63,-34.54 -5.71,-7.33 -14.58,-10.96 -26.54,-10.96 -8.46,0 -15.92,2.12 -22.42,6.46 -6.46,4.29 -11.46,10.37 -15.04,18.25 -3.58,7.83 -5.37,16.63 -5.37,26.3l0 74.96 -13.67 0 0 -199.83 13.67 0 0 88.88 0.58 0c10.58,-18.25 25.92,-27.33 46.04,-27.33 14.79,0 26,4.63 33.54,13.96 7.59,9.33 11.38,22.88 11.38,40.71l0 83.63z"/>
  <path id="17" class="fil2" d="M6423.82 921.69l0 -15.88c4.12,3.59 9.58,6.63 16.29,9.04 6.71,2.46 12.71,3.67 18,3.67 20.83,0 31.25,-8.21 31.25,-24.67 0,-5.5 -2.08,-10.33 -6.29,-14.46 -4.21,-4.09 -12.08,-8.63 -23.63,-13.59 -12.75,-5.37 -21.83,-11.08 -27.21,-17.04 -5.37,-6 -8.08,-13.46 -8.08,-22.42 0,-10.75 4.29,-19.58 12.83,-26.58 8.54,-7 19.29,-10.5 32.25,-10.5 11.54,0 21.54,2.29 30,6.96l0 15.13c-10.08,-6.5 -20.62,-9.75 -31.62,-9.75 -8.54,0 -15.54,2.12 -21,6.46 -5.42,4.29 -8.17,10.13 -8.17,17.46 0,4.71 0.79,8.5 2.33,11.42 1.54,2.87 4.13,5.54 7.75,8.04 3.62,2.5 9.58,5.54 17.87,9.21 14.96,6.67 24.92,12.67 29.79,18 4.87,5.33 7.33,12.46 7.33,21.33 0,11.13 -4.3,20.13 -12.88,27.04 -8.58,6.87 -19.83,10.29 -33.75,10.29 -13.21,0 -24.21,-3.04 -33.08,-9.17z"/>
  <path id="18" class="fil2" d="M6641.23 861.27l-99.25 0c0,17.75 4.17,31.71 12.5,41.96 8.33,10.21 20,15.29 35,15.29 15.12,0 29.7,-5.46 43.79,-16.33l0 14.04c-13.67,9.75 -29.25,14.63 -46.75,14.63 -18.13,0 -32.5,-6.37 -43,-19.17 -10.54,-12.79 -15.83,-30.17 -15.83,-52.13 0,-12.92 2.63,-24.83 7.83,-35.63 5.21,-10.83 12.46,-19.33 21.79,-25.46 9.29,-6.17 19.71,-9.21 31.17,-9.21 16.67,0 29.67,5.83 38.87,17.5 9.25,11.67 13.87,27.79 13.87,48.29l0 6.21zm-14.29 -12.08c-0.42,-15.21 -4,-26.96 -10.75,-35.21 -6.75,-8.25 -16.17,-12.37 -28.2,-12.37 -12.42,0 -22.67,4.12 -30.63,12.41 -7.96,8.33 -12.92,20.04 -14.87,35.17l84.46 0z"/>
  <path id="19" class="fil2" d="M6767.94 927.56l-13.67 0 0 -26 -0.5 0c-4.17,8.79 -10.29,15.87 -18.46,21.25 -8.13,5.38 -17.13,8.04 -26.96,8.04 -12.63,0 -22.75,-3.5 -30.46,-10.5 -7.67,-7 -11.54,-16.25 -11.54,-27.71 0,-24.08 15.5,-38.42 46.5,-42.96l41.41 -6.13c0,-28 -10.67,-41.96 -32,-41.96 -15.12,0 -29.62,5.87 -43.46,17.67l0 -15.83c5.63,-4.25 12.71,-7.67 21.25,-10.29 8.54,-2.58 16.37,-3.87 23.54,-3.87 14.33,0 25.29,4.25 32.92,12.79 7.58,8.54 11.42,21.13 11.42,37.75l0 87.75zm-13.67 -71.92l-36.37 5.25c-14.5,2.12 -24.29,5.41 -29.46,9.91 -5.13,4.46 -7.67,11.5 -7.67,21.13 0,7.96 2.63,14.37 7.92,19.25 5.29,4.92 12.5,7.33 21.63,7.33 8.13,0 15.58,-2.12 22.33,-6.41 6.75,-4.25 12.04,-10.21 15.87,-17.8 3.83,-7.62 5.75,-16.12 5.75,-25.46l0 -13.21z"/>
  <path id="20" class="fil2" d="M6801.4 921.69l0 -15.88c4.12,3.59 9.58,6.63 16.29,9.04 6.71,2.46 12.71,3.67 18,3.67 20.83,0 31.25,-8.21 31.25,-24.67 0,-5.5 -2.08,-10.33 -6.29,-14.46 -4.21,-4.09 -12.08,-8.63 -23.63,-13.59 -12.75,-5.37 -21.83,-11.08 -27.21,-17.04 -5.37,-6 -8.08,-13.46 -8.08,-22.42 0,-10.75 4.29,-19.58 12.83,-26.58 8.54,-7 19.29,-10.5 32.25,-10.5 11.54,0 21.54,2.29 30,6.96l0 15.13c-10.08,-6.5 -20.62,-9.75 -31.62,-9.75 -8.54,0 -15.54,2.12 -21,6.46 -5.42,4.29 -8.17,10.13 -8.17,17.46 0,4.71 0.79,8.5 2.33,11.42 1.54,2.87 4.13,5.54 7.75,8.04 3.62,2.5 9.58,5.54 17.87,9.21 14.96,6.67 24.92,12.67 29.79,18 4.87,5.33 7.33,12.46 7.33,21.33 0,11.13 -4.3,20.13 -12.88,27.04 -8.58,6.87 -19.83,10.29 -33.75,10.29 -13.21,0 -24.21,-3.04 -33.08,-9.17z"/>
  <path id="21" class="fil2" d="M6969.48 930.85c-19.29,0 -34.79,-6.37 -46.58,-19.17 -11.75,-12.79 -17.63,-29.67 -17.63,-50.67 0,-22.12 6,-39.62 17.96,-52.46 11.96,-12.87 28,-19.29 48.08,-19.29 19.46,0 34.75,6.33 45.92,19.04 11.13,12.67 16.71,29.96 16.71,51.88 0,21.08 -5.79,38.12 -17.37,51.12 -11.63,13.04 -27.3,19.54 -47.09,19.54zm1.09 -129.25c-15.75,0 -28.21,5.29 -37.33,15.96 -9.13,10.67 -13.67,25.21 -13.67,43.58 0,17.58 4.58,31.54 13.7,41.87 9.17,10.33 21.46,15.5 36.83,15.5 15.71,0 27.87,-5.12 36.54,-15.37 8.67,-10.25 13,-24.63 13,-43.08 0,-18.79 -4.29,-33.25 -12.88,-43.33 -8.58,-10.08 -20.62,-15.12 -36.2,-15.12z"/>
  <path id="22" class="fil2" d="M7172.73 927.56l-13.54 0 0 -78.37c0,-31.75 -11.54,-47.58 -34.54,-47.58 -8.33,0 -15.8,2.12 -22.42,6.46 -6.63,4.29 -11.79,10.21 -15.5,17.75 -3.71,7.54 -5.54,15.67 -5.54,24.38l0 77.37 -13.67 0 0 -135 13.67 0 0 24.17 0.58 0c9.88,-18.33 25.17,-27.46 45.92,-27.46 14.58,0 25.71,4.83 33.46,14.58 7.7,9.71 11.58,23.58 11.58,41.54l0 82.17z"/>
 </g>
</svg>
