<?xml version="1.0" encoding="UTF-8"?>
<!DOCTYPE svg PUBLIC "-//W3C//DTD SVG 1.1//EN" "http://www.w3.org/Graphics/SVG/1.1/DTD/svg11.dtd">
<!-- Creator: CorelDRAW 2017 -->
<svg xmlns="http://www.w3.org/2000/svg" xml:space="preserve" width="8.5in" height="2.684in" version="1.1" style="shape-rendering:geometricPrecision; text-rendering:geometricPrecision; image-rendering:optimizeQuality; fill-rule:evenodd; clip-rule:evenodd"
viewBox="0 0 8500 2684"
 xmlns:xlink="http://www.w3.org/1999/xlink">
 <defs>
  <style type="text/css">
   <![CDATA[
    .str0 {stroke:#373435;stroke-width:6.94;stroke-miterlimit:2.61313}
    .fil0 {fill:none}
    .fil1 {fill:#1D437C}
    .fil2 {fill:#FEFEFE;fill-rule:nonzero}
   ]]>
  </style>
 </defs>
 <g id="Layer_x0020_1">
  <metadata id="CorelCorpID_0Corel-Layer"/>
  <rect class="fil0 str0" x="-2.52" y="-0.11" width="8516.93" height="2690.18"/>
  <polygon class="fil1 str0" points="8514.42,-0.11 -2.52,-0.11 -2.52,2690.07 8514.42,2690.07 "/>
  <path class="fil2" d="M1552.06 420.63l-110.08 378.17 -26.59 0 -83 -283.17c-4.08,-13.83 -6.33,-25.92 -6.83,-36.17l-1.25 0c-0.5,8.33 -3.08,20.17 -7.83,35.67l-87.83 283.67 -26.42 0 -112.08 -378.17 32.5 0 85.25 300.75c3.25,12.42 5.83,24.25 7.75,35.67l1.25 0c1,-6.83 4,-18.75 9,-35.67l91.59 -300.75 18.08 0 84.67 301.25c3.25,11.42 6,23.08 8.08,34.92l1 0c0.33,-3.42 1.83,-10.5 4.58,-21.25l86.75 -314.91 31.42 0z"/>
  <path id="1" class="fil2" d="M1815.56 666.22l-198.5 0c0,35.5 8.33,63.42 25,83.92 16.67,20.41 40,30.58 70,30.58 30.25,0 59.42,-10.92 87.58,-32.67l0 28.09c-27.33,19.5 -58.5,29.25 -93.5,29.25 -36.25,0 -65,-12.75 -86,-38.33 -21.08,-25.58 -31.67,-60.33 -31.67,-104.25 0,-25.83 5.25,-49.67 15.67,-71.25 10.42,-21.67 24.92,-38.67 43.58,-50.91 18.59,-12.33 39.42,-18.42 62.33,-18.42 33.33,0 59.33,11.67 77.75,35 18.5,23.33 27.75,55.58 27.75,96.58l0 12.42zm-28.58 -24.17c-0.83,-30.41 -8,-53.91 -21.5,-70.41 -13.5,-16.5 -32.33,-24.75 -56.42,-24.75 -24.83,0 -45.33,8.25 -61.25,24.83 -15.92,16.67 -25.83,40.08 -29.75,70.33l168.92 0z"/>
  <polygon id="2" class="fil2" points="1909.31,798.8 1881.98,798.8 1881.98,399.13 1909.31,399.13 "/>
  <path id="3" class="fil2" d="M2172.23 786.8c-19.83,12.42 -43.92,18.58 -72,18.58 -24,0 -45.33,-5.75 -64.25,-17.17 -18.92,-11.5 -33.5,-27.67 -43.83,-48.42 -10.33,-20.75 -15.5,-44.42 -15.5,-71.17 0,-27.83 5.75,-52.92 17.25,-75.42 11.42,-22.42 27.59,-39.92 48.42,-52.33 20.83,-12.5 44.33,-18.67 70.58,-18.67 21.33,0 41.42,4.17 60.33,12.67l0 30.25c-19.25,-12.17 -40.42,-18.25 -63.5,-18.25 -31.08,0 -56.25,11.25 -75.58,33.75 -19.25,22.58 -28.92,51.33 -28.92,86.33 0,34.17 8.83,61.67 26.58,82.5 17.75,20.83 41.25,31.25 70.58,31.25 26.67,0 50,-7.25 69.83,-21.75l0 27.83z"/>
  <path id="4" class="fil2" d="M2346.31 805.38c-38.58,0 -69.58,-12.75 -93.17,-38.33 -23.5,-25.58 -35.25,-59.33 -35.25,-101.33 0,-44.25 12,-79.25 35.92,-104.92 23.92,-25.75 56,-38.58 96.17,-38.58 38.92,0 69.5,12.67 91.83,38.08 22.25,25.33 33.42,59.92 33.42,103.75 0,42.17 -11.59,76.25 -34.75,102.25 -23.25,26.08 -54.58,39.08 -94.17,39.08zm2.17 -258.5c-31.5,0 -56.42,10.58 -74.67,31.92 -18.25,21.33 -27.33,50.42 -27.33,87.17 0,35.17 9.17,63.08 27.42,83.75 18.33,20.67 42.92,31 73.67,31 31.42,0 55.75,-10.25 73.08,-30.75 17.33,-20.5 26,-49.25 26,-86.17 0,-37.58 -8.58,-66.5 -25.75,-86.67 -17.17,-20.17 -41.25,-30.25 -72.42,-30.25z"/>
  <path id="5" class="fil2" d="M2908.56 798.8l-27.33 0 0 -161.17c0,-32.17 -5,-55.42 -14.92,-69.59 -9.91,-14.08 -26.75,-21.17 -50.5,-21.17 -13.5,0 -26.17,4.17 -38,12.5 -11.75,8.42 -21.17,19.92 -28.08,34.5 -6.92,14.5 -10.33,30.33 -10.33,47.42l0 157.5 -27.09 0 0 -163.58c0,-58.92 -22.58,-88.33 -67.67,-88.33 -21.33,0 -39.17,8.92 -53.5,26.92 -14.25,18 -21.42,41.25 -21.42,69.75l0 155.25 -27.33 0 0 -270 27.33 0 0 44.67 1.17 0c18.75,-34.17 46.33,-51.25 82.75,-51.25 18.92,0 35.5,5.5 49.75,16.42 14.25,11 23.75,25.75 28.67,44.33 8.75,-19.17 20.83,-34.17 36.25,-44.75 15.42,-10.67 32.59,-16 51.67,-16 59.08,0 88.58,36.5 88.58,109.58l0 167z"/>
  <path id="6" class="fil2" d="M3197.4 666.22l-198.5 0c0,35.5 8.33,63.42 25,83.92 16.67,20.41 40,30.58 70,30.58 30.25,0 59.42,-10.92 87.58,-32.67l0 28.09c-27.33,19.5 -58.5,29.25 -93.5,29.25 -36.25,0 -65,-12.75 -86,-38.33 -21.08,-25.58 -31.67,-60.33 -31.67,-104.25 0,-25.83 5.25,-49.67 15.67,-71.25 10.42,-21.67 24.92,-38.67 43.58,-50.91 18.59,-12.33 39.42,-18.42 62.33,-18.42 33.33,0 59.33,11.67 77.75,35 18.5,23.33 27.75,55.58 27.75,96.58l0 12.42zm-28.58 -24.17c-0.83,-30.41 -8,-53.91 -21.5,-70.41 -13.5,-16.5 -32.33,-24.75 -56.42,-24.75 -24.83,0 -45.33,8.25 -61.25,24.83 -15.92,16.67 -25.83,40.08 -29.75,70.33l168.92 0z"/>
  <path id="7" class="fil2" d="M3521.56 795.38c-12.25,5.83 -24.33,8.75 -36.42,8.75 -41,0 -61.5,-24.33 -61.5,-73l0 -177.67 -48.33 0 0 -24.67 48.33 0 0 -69.33 27.33 -9.33 0 78.67 70.58 0 0 24.67 -70.58 0 0 157.42c0,20.33 1.17,35 3.58,43.83 2.33,8.92 6.17,15.33 11.58,19.33 5.33,3.92 13.25,5.92 23.67,5.92 10.25,0 20.83,-3.25 31.75,-9.75l0 25.17z"/>
  <path id="8" class="fil2" d="M3684.9 805.38c-38.58,0 -69.58,-12.75 -93.17,-38.33 -23.5,-25.58 -35.25,-59.33 -35.25,-101.33 0,-44.25 12,-79.25 35.92,-104.92 23.92,-25.75 56,-38.58 96.17,-38.58 38.92,0 69.5,12.67 91.83,38.08 22.25,25.33 33.42,59.92 33.42,103.75 0,42.17 -11.59,76.25 -34.75,102.25 -23.25,26.08 -54.58,39.08 -94.17,39.08zm2.17 -258.5c-31.5,0 -56.42,10.58 -74.67,31.92 -18.25,21.33 -27.33,50.42 -27.33,87.17 0,35.17 9.17,63.08 27.42,83.75 18.33,20.67 42.92,31 73.67,31 31.42,0 55.75,-10.25 73.08,-30.75 17.33,-20.5 26,-49.25 26,-86.17 0,-37.58 -8.58,-66.5 -25.75,-86.67 -17.17,-20.17 -41.25,-30.25 -72.42,-30.25z"/>
  <path id="9" class="fil2" d="M4138.73 795.38c-12.25,5.83 -24.33,8.75 -36.42,8.75 -41,0 -61.5,-24.33 -61.5,-73l0 -177.67 -48.33 0 0 -24.67 48.33 0 0 -69.33 27.33 -9.33 0 78.67 70.58 0 0 24.67 -70.58 0 0 157.42c0,20.33 1.17,35 3.58,43.83 2.33,8.92 6.17,15.33 11.58,19.33 5.33,3.92 13.25,5.92 23.67,5.92 10.25,0 20.83,-3.25 31.75,-9.75l0 25.17z"/>
  <path id="10" class="fil2" d="M4403.39 798.8l-27.08 0 0 -160.92c0,-31.42 -5.75,-54.42 -17.25,-69.08 -11.42,-14.67 -29.17,-21.92 -53.08,-21.92 -16.92,0 -31.83,4.25 -44.83,12.92 -12.92,8.58 -22.92,20.75 -30.08,36.5 -7.17,15.67 -10.75,33.25 -10.75,52.58l0 149.92 -27.33 0 0 -399.67 27.33 0 0 177.75 1.17 0c21.17,-36.5 51.83,-54.67 92.08,-54.67 29.58,0 52,9.25 67.08,27.92 15.17,18.67 22.75,45.75 22.75,81.41l0 167.25z"/>
  <path id="11" class="fil2" d="M4692.48 666.22l-198.5 0c0,35.5 8.33,63.42 25,83.92 16.67,20.41 40,30.58 70,30.58 30.25,0 59.42,-10.92 87.58,-32.67l0 28.09c-27.33,19.5 -58.5,29.25 -93.5,29.25 -36.25,0 -65,-12.75 -86,-38.33 -21.08,-25.58 -31.67,-60.33 -31.67,-104.25 0,-25.83 5.25,-49.67 15.67,-71.25 10.42,-21.67 24.92,-38.67 43.58,-50.91 18.59,-12.33 39.42,-18.42 62.33,-18.42 33.33,0 59.33,11.67 77.75,35 18.5,23.33 27.75,55.58 27.75,96.58l0 12.42zm-28.58 -24.17c-0.83,-30.41 -8,-53.91 -21.5,-70.41 -13.5,-16.5 -32.33,-24.75 -56.42,-24.75 -24.83,0 -45.33,8.25 -61.25,24.83 -15.92,16.67 -25.83,40.08 -29.75,70.33l168.92 0z"/>
  <path id="12" class="fil2" d="M5075.48 516.05c0,-23.91 -6.75,-42.75 -20.17,-56.5 -13.42,-13.75 -32.42,-20.58 -57,-20.58 -31.75,0 -63.17,14.17 -94.25,42.42l0 -31.5c30.5,-23.75 63.25,-35.58 98.42,-35.58 30.92,0 55.58,9 73.83,26.92 18.33,18 27.5,41.67 27.5,70.92 0,18.75 -3.09,35.58 -9.17,50.58 -6.08,15 -15.17,29.08 -27.08,42.33 -12,13.25 -30.83,29 -56.5,47.25 -29.67,21 -50.17,37.08 -61.58,48.25 -11.33,11.17 -19.33,22.25 -23.92,33.33 -4.5,11 -6.83,24.42 -6.83,40l188 0 0 24.92 -217.25 0 0 -17.83c0,-17.42 2.08,-32.42 6.33,-44.92 4.25,-12.5 10.67,-24.17 19.41,-34.75 8.67,-10.67 19.67,-21.25 32.92,-31.67 13.25,-10.42 28.92,-22.09 47,-35.17 22.67,-16.25 39.08,-30.08 49.42,-41.33 10.33,-11.33 18.08,-23.25 23.25,-35.67 5.08,-12.42 7.67,-26.25 7.67,-41.42z"/>
  <path id="13" class="fil2" d="M5399.65 608.13c0,63.5 -10.33,112.25 -31,146.25 -20.67,34 -49.92,51 -87.83,51 -36,0 -63.75,-16.25 -83.17,-48.83 -19.42,-32.5 -29.17,-78.75 -29.17,-138.67 0,-67.25 10.33,-117.92 31.09,-152.25 20.75,-34.25 50.58,-51.33 89.5,-51.33 73.75,0 110.58,64.58 110.58,193.83zm-28.5 3.67c0,-115.25 -28.08,-172.83 -84.25,-172.83 -28.67,0 -50.92,14.58 -66.67,43.92 -15.75,29.25 -23.67,73.25 -23.67,131.83 0,53.42 7.5,94.42 22.58,123.08 15,28.58 36.75,42.92 65.08,42.92 27.67,0 49,-14.5 64.17,-43.58 15.17,-29 22.75,-70.83 22.75,-125.33z"/>
  <path id="14" class="fil2" d="M5537.82 798.8l0 -345c-22.25,21 -52.92,38.08 -91.75,51.33l0 -25.42c18.83,-6.33 36.92,-14.67 54.17,-25 17.25,-10.33 35.67,-24.5 55.17,-42.42l9.5 0 0 386.5 -27.08 0z"/>
  <path id="15" class="fil2" d="M5646.98 693.3c0,-21.75 6.25,-41.5 18.83,-59.17 12.5,-17.67 29.67,-30.42 51.5,-38.25 -17.92,-8.75 -31.92,-20.67 -42.17,-35.75 -10.17,-15 -15.25,-31.42 -15.25,-49.17 0,-27.67 9.58,-50.67 28.58,-69.08 19.08,-18.42 42.92,-27.58 71.58,-27.58 18.67,0 35.75,4.17 51.25,12.58 15.42,8.33 27.42,19.92 36,34.67 8.5,14.67 12.83,31.17 12.83,49.42 0,17.42 -4.92,33.67 -14.83,48.83 -9.83,15.08 -23.67,27.17 -41.58,36.08 21.83,8.17 38.75,21.08 50.92,38.83 12.08,17.75 18.17,37.25 18.17,58.58 0,33.92 -10.25,60.92 -30.92,81.17 -20.58,20.33 -47.92,30.42 -82.08,30.42 -34.08,0 -61.33,-10.17 -81.92,-30.5 -20.58,-20.33 -30.92,-47.33 -30.92,-81.08zm28.58 1.75c0,25.59 7.75,46.17 23.33,61.92 15.5,15.67 35.67,23.5 60.42,23.5 24.92,0 45.17,-7.92 60.92,-23.75 15.67,-15.92 23.5,-36.42 23.5,-61.67 0,-24.41 -7.92,-44.75 -23.75,-61.08 -15.92,-16.25 -36.08,-24.42 -60.67,-24.42 -24.08,0 -44.08,8.09 -60,24.25 -15.83,16.08 -23.75,36.5 -23.75,61.25zm13.17 -182.91c0,20.08 6.92,37.17 20.67,51.41 13.75,14.25 30.5,21.42 50.42,21.42 19.5,0 36.33,-7.08 50.42,-21.25 14.08,-14.17 21.08,-31.33 21.08,-51.58 0,-21.09 -6.92,-38.67 -20.75,-52.59 -13.83,-13.91 -30.75,-20.83 -50.75,-20.83 -20.58,0 -37.5,7 -50.92,21 -13.42,14 -20.17,31.5 -20.17,52.42z"/>
  <path id="16" class="fil2" d="M6083.49 785.13l0 -33.42c26.5,18 55,27.08 85.42,27.08 29.33,0 51.42,-5.92 66.25,-17.58 14.92,-11.75 22.42,-28.5 22.42,-50.33 0,-12.83 -2,-23.33 -5.92,-31.33 -3.92,-8.08 -10.75,-16.17 -20.58,-24.17 -9.83,-8.08 -28.83,-20.17 -56.75,-36.25 -23.17,-13.09 -41,-24.83 -53.67,-35.33 -12.58,-10.5 -21.58,-21 -27.08,-31.5 -5.42,-10.5 -8.17,-24.25 -8.17,-41.33 0,-18.08 4.92,-34.5 14.75,-49.33 9.92,-14.83 23.83,-26.42 41.92,-34.75 18.08,-8.42 38.08,-12.58 60,-12.58 25.08,0 48.42,3.92 69.83,11.67l0 31c-22.25,-10.75 -46.75,-16.08 -73.42,-16.08 -24.58,0 -44.58,6.17 -59.83,18.42 -15.33,12.33 -23,28.58 -23,48.75 0,13.5 2.08,24.33 6.25,32.42 4.17,8.17 11.58,16.42 22.33,24.83 10.75,8.33 28.59,19.5 53.5,33.33 34.5,19.33 58.17,36.83 70.92,52.33 12.75,15.58 19.17,34.08 19.17,55.58 0,30.42 -10.75,54.5 -32.09,72.25 -21.41,17.75 -50.25,26.58 -86.58,26.58 -12.17,0 -27.42,-2.08 -45.67,-6.33 -18.25,-4.25 -31.58,-8.92 -40,-13.92z"/>
  <path id="17" class="fil2" d="M6569.82 666.22l-198.5 0c0,35.5 8.33,63.42 25,83.92 16.67,20.41 40,30.58 70,30.58 30.25,0 59.42,-10.92 87.58,-32.67l0 28.09c-27.33,19.5 -58.5,29.25 -93.5,29.25 -36.25,0 -65,-12.75 -86,-38.33 -21.08,-25.58 -31.67,-60.33 -31.67,-104.25 0,-25.83 5.25,-49.67 15.67,-71.25 10.42,-21.67 24.92,-38.67 43.58,-50.91 18.59,-12.33 39.42,-18.42 62.33,-18.42 33.33,0 59.33,11.67 77.75,35 18.5,23.33 27.75,55.58 27.75,96.58l0 12.42zm-28.58 -24.17c-0.83,-30.41 -8,-53.91 -21.5,-70.41 -13.5,-16.5 -32.33,-24.75 -56.42,-24.75 -24.83,0 -45.33,8.25 -61.25,24.83 -15.92,16.67 -25.83,40.08 -29.75,70.33l168.92 0z"/>
  <path id="18" class="fil2" d="M6823.24 798.8l-27.33 0 0 -52 -1 0c-8.33,17.58 -20.58,31.75 -36.92,42.5 -16.25,10.75 -34.25,16.08 -53.92,16.08 -25.25,0 -45.5,-7 -60.92,-21 -15.33,-14 -23.08,-32.5 -23.08,-55.42 0,-48.17 31,-76.83 93,-85.92l82.83 -12.25c0,-56 -21.33,-83.92 -64,-83.92 -30.25,0 -59.25,11.75 -86.92,35.33l0 -31.67c11.25,-8.5 25.42,-15.33 42.5,-20.58 17.08,-5.17 32.75,-7.75 47.08,-7.75 28.67,0 50.58,8.5 65.83,25.58 15.17,17.08 22.83,42.25 22.83,75.5l0 175.5zm-27.33 -143.83l-72.75 10.5c-29,4.25 -48.58,10.83 -58.91,19.83 -10.25,8.92 -15.33,23 -15.33,42.25 0,15.92 5.25,28.75 15.83,38.5 10.58,9.83 25,14.67 43.25,14.67 16.25,0 31.17,-4.25 44.67,-12.83 13.5,-8.5 24.09,-20.42 31.75,-35.58 7.67,-15.25 11.5,-32.25 11.5,-50.92l0 -26.42z"/>
  <path id="19" class="fil2" d="M6890.15 787.05l0 -31.75c8.25,7.17 19.17,13.25 32.58,18.08 13.42,4.92 25.42,7.33 36,7.33 41.67,0 62.5,-16.42 62.5,-49.33 0,-11 -4.17,-20.67 -12.58,-28.92 -8.42,-8.17 -24.17,-17.25 -47.25,-27.17 -25.5,-10.75 -43.67,-22.17 -54.42,-34.08 -10.75,-12 -16.17,-26.92 -16.17,-44.83 0,-21.5 8.58,-39.17 25.67,-53.17 17.08,-14 38.58,-21 64.5,-21 23.08,0 43.08,4.58 60,13.92l0 30.25c-20.17,-13 -41.25,-19.5 -63.25,-19.5 -17.08,0 -31.08,4.25 -42,12.92 -10.83,8.58 -16.33,20.25 -16.33,34.92 0,9.42 1.58,17 4.67,22.83 3.08,5.75 8.25,11.09 15.5,16.09 7.25,5 19.17,11.08 35.75,18.41 29.91,13.33 49.83,25.33 59.58,36 9.75,10.67 14.67,24.92 14.67,42.67 0,22.25 -8.58,40.25 -25.75,54.08 -17.17,13.75 -39.67,20.58 -67.5,20.58 -26.42,0 -48.42,-6.08 -66.17,-18.33z"/>
  <path id="20" class="fil2" d="M7226.32 805.38c-38.58,0 -69.58,-12.75 -93.17,-38.33 -23.5,-25.58 -35.25,-59.33 -35.25,-101.33 0,-44.25 12,-79.25 35.92,-104.92 23.92,-25.75 56,-38.58 96.17,-38.58 38.92,0 69.5,12.67 91.83,38.08 22.25,25.33 33.42,59.92 33.42,103.75 0,42.17 -11.59,76.25 -34.75,102.25 -23.25,26.08 -54.58,39.08 -94.17,39.08zm2.17 -258.5c-31.5,0 -56.42,10.58 -74.67,31.92 -18.25,21.33 -27.33,50.42 -27.33,87.17 0,35.17 9.17,63.08 27.42,83.75 18.33,20.67 42.92,31 73.67,31 31.42,0 55.75,-10.25 73.08,-30.75 17.33,-20.5 26,-49.25 26,-86.17 0,-37.58 -8.58,-66.5 -25.75,-86.67 -17.17,-20.17 -41.25,-30.25 -72.42,-30.25z"/>
  <path id="21" class="fil2" d="M7632.82 798.8l-27.08 0 0 -156.75c0,-63.5 -23.08,-95.17 -69.08,-95.17 -16.67,0 -31.58,4.25 -44.83,12.92 -13.25,8.58 -23.58,20.42 -31,35.5 -7.41,15.08 -11.08,31.33 -11.08,48.75l0 154.75 -27.33 0 0 -270 27.33 0 0 48.33 1.17 0c19.75,-36.67 50.33,-54.92 91.83,-54.92 29.17,0 51.42,9.67 66.92,29.17 15.42,19.42 23.17,47.17 23.17,83.08l0 164.33z"/>
 </g>
</svg>
