<?xml version="1.0" encoding="UTF-8"?>
<!DOCTYPE svg PUBLIC "-//W3C//DTD SVG 1.1//EN" "http://www.w3.org/Graphics/SVG/1.1/DTD/svg11.dtd">
<!-- Creator: CorelDRAW 2017 -->
<svg xmlns="http://www.w3.org/2000/svg" xml:space="preserve" width="8.5in" height="2.684in" version="1.1" style="shape-rendering:geometricPrecision; text-rendering:geometricPrecision; image-rendering:optimizeQuality; fill-rule:evenodd; clip-rule:evenodd"
viewBox="0 0 8500 2684"
 xmlns:xlink="http://www.w3.org/1999/xlink">
 <defs>
  <style type="text/css">
   <![CDATA[
    .str0 {stroke:#373435;stroke-width:6.94;stroke-miterlimit:2.61313}
    .fil0 {fill:none}
    .fil1 {fill:#A81F8A}
    .fil2 {fill:#FEFEFE;fill-rule:nonzero}
   ]]>
  </style>
 </defs>
 <g id="Layer_x0020_1">
  <metadata id="CorelCorpID_0Corel-Layer"/>
  <rect class="fil0 str0" x="-14.42" y="-0.12" width="8514.42" height="2684.11"/>
  <polygon class="fil1 str0" points="8500,-0.11 -14.42,-0.11 -14.42,2684 8500,2684 "/>
  <path class="fil2" d="M3022.13 872.82c-2.37,0 -4.31,-0.81 -5.9,-2.46 -1.59,-1.65 -2.37,-3.63 -2.37,-5.96 0,-2.43 0.81,-4.37 2.46,-5.9 1.65,-1.52 3.56,-2.27 5.8,-2.27 2.27,0 4.24,0.74 5.93,2.24 1.69,1.46 2.5,3.43 2.5,5.93 0,2.2 -0.78,4.18 -2.4,5.87 -1.62,1.72 -3.63,2.56 -6.03,2.56zm5.31 131.51l-10.63 0 0 -105 10.63 0 0 105z"/>
  <path id="1" class="fil2" d="M3103.86 1003c-4.76,2.27 -9.46,3.4 -14.16,3.4 -15.94,0 -23.92,-9.46 -23.92,-28.39l0 -69.09 -18.8 0 0 -9.59 18.8 0 0 -26.96 10.63 -3.63 0 30.59 27.45 0 0 9.59 -27.45 0 0 61.22c0,7.91 0.45,13.61 1.39,17.05 0.91,3.46 2.4,5.96 4.5,7.52 2.07,1.52 5.15,2.3 9.2,2.3 3.98,0 8.1,-1.26 12.35,-3.79l0 9.79z"/>
  <path id="2" class="fil2" d="M3119.45 999.76l0 -12.35c3.21,2.79 7.45,5.15 12.67,7.03 5.22,1.91 9.89,2.85 14,2.85 16.2,0 24.31,-6.39 24.31,-19.19 0,-4.28 -1.62,-8.04 -4.89,-11.24 -3.28,-3.18 -9.4,-6.71 -18.37,-10.57 -9.92,-4.18 -16.98,-8.62 -21.17,-13.25 -4.18,-4.67 -6.28,-10.47 -6.28,-17.44 0,-8.36 3.33,-15.23 9.98,-20.67 6.64,-5.44 15,-8.17 25.08,-8.17 8.98,0 16.75,1.78 23.33,5.41l0 11.76c-7.84,-5.06 -16.04,-7.58 -24.59,-7.58 -6.65,0 -12.09,1.65 -16.33,5.02 -4.21,3.33 -6.35,7.87 -6.35,13.57 0,3.67 0.61,6.61 1.81,8.88 1.2,2.24 3.21,4.31 6.03,6.25 2.82,1.94 7.45,4.31 13.9,7.17 11.63,5.19 19.38,9.85 23.17,14 3.79,4.15 5.7,9.69 5.7,16.59 0,8.65 -3.34,15.65 -10.01,21.03 -6.68,5.35 -15.43,8 -26.25,8 -10.27,0 -18.83,-2.37 -25.73,-7.13z"/>
  <path id="3" class="fil2" d="M3407.68 1004.33l-10.63 0 0 -62.67c0,-12.51 -1.94,-21.55 -5.8,-27.06 -3.85,-5.48 -10.4,-8.23 -19.64,-8.23 -5.25,0 -10.18,1.62 -14.78,4.86 -4.57,3.28 -8.23,7.75 -10.92,13.42 -2.69,5.64 -4.02,11.8 -4.02,18.44l0 61.25 -10.53 0 0 -63.61c0,-22.91 -8.78,-34.35 -26.31,-34.35 -8.3,0 -15.23,3.46 -20.81,10.46 -5.54,7 -8.33,16.04 -8.33,27.13l0 60.37 -10.63 0 0 -105 10.63 0 0 17.37 0.45 0c7.29,-13.28 18.02,-19.93 32.18,-19.93 7.35,0 13.8,2.14 19.35,6.39 5.54,4.28 9.24,10.01 11.15,17.24 3.4,-7.45 8.1,-13.29 14.09,-17.4 6,-4.15 12.67,-6.22 20.09,-6.22 22.98,0 34.45,14.2 34.45,42.61l0 64.94z"/>
  <path id="4" class="fil2" d="M3481.63 1006.89c-15,0 -27.06,-4.96 -36.23,-14.91 -9.14,-9.95 -13.71,-23.07 -13.71,-39.41 0,-17.21 4.67,-30.82 13.97,-40.8 9.3,-10.01 21.78,-15 37.4,-15 15.13,0 27.03,4.93 35.71,14.81 8.65,9.85 13,23.3 13,40.35 0,16.4 -4.5,29.65 -13.52,39.76 -9.04,10.14 -21.22,15.2 -36.62,15.2zm0.84 -100.52c-12.25,0 -21.94,4.11 -29.04,12.41 -7.1,8.3 -10.63,19.61 -10.63,33.9 0,13.68 3.56,24.53 10.66,32.57 7.13,8.04 16.69,12.06 28.65,12.06 12.22,0 21.68,-3.99 28.42,-11.96 6.74,-7.97 10.11,-19.15 10.11,-33.51 0,-14.61 -3.33,-25.86 -10.01,-33.7 -6.68,-7.84 -16.04,-11.76 -28.16,-11.76z"/>
  <path id="5" class="fil2" d="M3608.28 910.35c-3.05,-2.3 -6.84,-3.43 -11.37,-3.43 -8.75,0 -15.69,4.31 -20.84,12.93 -5.19,8.59 -7.74,20.13 -7.74,34.55l0 49.94 -10.44 0 0 -105 10.44 0 0 22.98 0.45 0c2.5,-8.04 6.32,-14.22 11.5,-18.57 5.19,-4.34 11.08,-6.52 17.66,-6.52 3.86,0 7.29,0.65 10.34,1.91l0 11.21z"/>
  <path id="6" class="fil2" d="M3708.54 952.77l-77.19 0c0,13.8 3.24,24.66 9.72,32.63 6.48,7.94 15.56,11.89 27.22,11.89 11.76,0 23.11,-4.25 34.06,-12.7l0 10.92c-10.63,7.58 -22.75,11.37 -36.36,11.37 -14.1,0 -25.28,-4.96 -33.44,-14.91 -8.2,-9.95 -12.31,-23.46 -12.31,-40.54 0,-10.04 2.04,-19.31 6.09,-27.7 4.05,-8.43 9.69,-15.04 16.95,-19.8 7.22,-4.8 15.33,-7.16 24.24,-7.16 12.96,0 23.07,4.54 30.24,13.61 7.19,9.07 10.79,21.62 10.79,37.56l0 4.83zm-11.12 -9.4c-0.32,-11.83 -3.11,-20.97 -8.36,-27.39 -5.25,-6.41 -12.57,-9.62 -21.94,-9.62 -9.66,0 -17.63,3.21 -23.82,9.66 -6.19,6.48 -10.05,15.59 -11.57,27.35l65.69 0z"/>
  <path id="7" class="fil2" d="M3838.88 859.54c-2.78,-1.88 -6.61,-2.85 -11.5,-2.85 -12.7,0 -19.09,8.46 -19.09,25.37l0 17.27 27.26 0 0 9.59 -27.26 0 0 95.41 -10.63 0 0 -95.41 -18.7 0 0 -9.59 18.7 0 0 -18.05c0,-10.24 2.76,-18.5 8.23,-24.79 5.48,-6.26 12.7,-9.4 21.68,-9.4 4.5,0 8.26,0.68 11.31,2.01l0 10.43z"/>
  <path id="8" class="fil2" d="M3930.85 1004.33l-10.73 0 0 -18.7 -0.35 0c-7.23,14.16 -18.44,21.26 -33.61,21.26 -24.89,0 -37.33,-15.49 -37.33,-46.5l0 -61.06 10.73 0 0 58.66c0,13.48 2.3,23.4 6.84,29.78 4.57,6.35 11.8,9.53 21.74,9.53 9.69,0 17.43,-3.53 23.27,-10.57 5.83,-7.06 8.72,-16.33 8.72,-27.77l0 -59.63 10.73 0 0 105z"/>
  <path id="9" class="fil2" d="M4046.32 1004.33l-10.53 0 0 -60.96c0,-24.69 -8.98,-37.01 -26.87,-37.01 -6.48,0 -12.28,1.65 -17.43,5.02 -5.15,3.33 -9.17,7.94 -12.06,13.8 -2.89,5.87 -4.31,12.19 -4.31,18.96l0 60.18 -10.63 0 0 -105 10.63 0 0 18.8 0.45 0c7.68,-14.26 19.57,-21.36 35.71,-21.36 11.34,0 20,3.76 26.02,11.34 6,7.55 9.01,18.34 9.01,32.31l0 63.91z"/>
  <path id="10" class="fil2" d="M4237.04 960.74l-0.35 0c-6.03,16.27 -16.04,24.4 -30.01,24.4 -9.49,0 -17.04,-3.43 -22.65,-10.31 -5.61,-6.87 -8.39,-16.07 -8.39,-27.67 0,-10.18 1.78,-19.44 5.41,-27.77 3.6,-8.3 8.62,-14.81 15.1,-19.44 6.45,-4.67 13.77,-7 22,-7 4.89,0 9.4,1.3 13.55,3.85 4.15,2.56 6.9,5.83 8.3,9.82l0.39 0 1.04 -12.25 9.59 0 -5.12 59.53c0,14.74 5.02,22.13 15.1,22.13 8.39,0 15.3,-4.31 20.64,-12.96 5.35,-8.65 8.01,-19.48 8.01,-32.51 0,-13.35 -2.85,-25.11 -8.52,-35.22 -5.7,-10.14 -13.84,-17.89 -24.41,-23.27 -10.56,-5.38 -22.91,-8.07 -37.04,-8.07 -13.9,0 -26.44,3.34 -37.59,10.02 -11.15,6.67 -19.87,16.01 -26.15,28 -6.29,11.99 -9.46,25.08 -9.46,39.28 0,14.61 2.98,27.48 8.88,38.6 5.93,11.08 14.39,19.64 25.41,25.57 11.02,5.96 23.72,8.91 38.18,8.94 17.08,-0.03 31.59,-2.98 43.59,-8.94l0 10.18c-13.13,5.31 -28,7.97 -44.63,7.97 -16.04,0 -30.3,-3.47 -42.84,-10.37 -12.51,-6.91 -22.17,-16.59 -28.94,-29.13 -6.77,-12.54 -10.18,-26.77 -10.18,-42.71 0,-16.4 3.79,-31.24 11.34,-44.5 7.58,-13.25 17.83,-23.56 30.72,-30.95 12.9,-7.39 27.12,-11.05 42.65,-11.05 15.17,0 28.87,3.15 41.06,9.43 12.19,6.29 21.65,15.17 28.39,26.64 6.74,11.44 10.11,24.37 10.11,38.72 0,10.34 -1.72,19.77 -5.09,28.29 -3.41,8.56 -8.1,15.23 -14.1,20 -6.03,4.76 -12.64,7.16 -19.87,7.16 -15.1,0 -23.14,-8.13 -24.11,-24.4zm-19.25 -58.66c-9.56,0 -17.24,4.08 -22.98,12.28 -5.77,8.2 -8.65,18.96 -8.65,32.24 0,9.17 1.98,16.37 5.9,21.55 3.92,5.19 9.24,7.78 15.94,7.78 9.04,0 16.3,-4.63 21.74,-13.87 5.44,-9.24 8.17,-21.22 8.17,-35.97 0,-7.97 -1.78,-13.97 -5.31,-17.99 -3.56,-4.02 -8.49,-6.03 -14.81,-6.03z"/>
  <path id="11" class="fil2" d="M4426.74 904.22l0 100.11 -19.39 0 0 -252.11 62 0c26.5,0 46.61,6.17 60.33,18.44 13.72,12.33 20.56,30 20.56,53 0,24.22 -7.94,43.67 -23.89,58.44 -16,14.72 -37.28,22.11 -64,22.11l-35.61 0zm0 -134.11l0 116.39 35 0c22.22,0 39.22,-5.33 50.89,-15.94 11.72,-10.67 17.61,-25.61 17.61,-44.94 0,-37 -21.44,-55.5 -64.28,-55.5l-39.22 0z"/>
  <path id="12" class="fil2" d="M4707.46 1008.72c-23,0 -43.39,-5.33 -61.28,-16 -17.83,-10.72 -31.61,-25.83 -41.33,-45.44 -9.72,-19.56 -14.56,-41.67 -14.56,-66.33 0,-26.33 4.94,-49.67 14.83,-69.94 9.83,-20.33 24,-35.89 42.44,-46.72 18.44,-10.89 39.94,-16.28 64.44,-16.28 22.28,0 42.06,5.22 59.44,15.78 17.33,10.5 30.83,25.44 40.5,44.83 9.67,19.39 14.5,41.39 14.5,66 0,27 -4.78,50.67 -14.39,70.89 -9.61,20.22 -23.44,35.83 -41.5,46.78 -18.11,10.94 -39.11,16.44 -63.11,16.44zm1.83 -243c-18.89,0 -35.94,4.78 -51.11,14.39 -15.22,9.61 -27,23.06 -35.33,40.39 -8.33,17.28 -12.56,36.78 -12.56,58.5 0,22.28 4,41.89 11.89,58.83 7.94,17 19.28,30.11 34,39.33 14.78,9.22 31.78,13.83 50.94,13.83 30.94,0 55.22,-10.11 72.89,-30.39 17.61,-20.22 26.44,-47.89 26.44,-83.06 0,-34.83 -8.67,-62.17 -25.89,-82.06 -17.28,-19.83 -41.06,-29.78 -71.28,-29.78z"/>
  <path id="13" class="fil2" d="M5061.02 986.78c-25.94,14.61 -52.94,21.94 -81.06,21.94 -22.5,0 -42.56,-5.28 -60.33,-15.89 -17.72,-10.56 -31.44,-25.5 -41.17,-44.83 -9.72,-19.28 -14.56,-41.33 -14.56,-66.06 0,-25.5 5.33,-48.5 15.94,-68.94 10.61,-20.44 25.61,-36.39 45,-47.83 19.39,-11.44 41.28,-17.17 65.67,-17.17 23.11,0 44.89,4.44 65.28,13.33l0 21.33c-22.56,-11.28 -45.17,-16.94 -67.89,-16.94 -20.06,0 -38.06,4.78 -53.94,14.39 -15.89,9.61 -28.22,23.11 -36.94,40.56 -8.72,17.39 -13.11,36.94 -13.11,58.67 0,34.72 8.94,62 26.78,81.89 17.89,19.83 42.06,29.78 72.5,29.78 22.28,0 41.72,-4.78 58.44,-14.33l0 -81.06 -58.72 0 0 -17.56 78.11 0 0 108.72z"/>
  <polygon id="14" class="fil2" points="5162.74,752.22 5162.74,769.61 5138.02,769.61 5138.02,986.89 5162.74,986.89 5162.74,1004.33 5094.07,1004.33 5094.07,986.89 5118.79,986.89 5118.79,769.61 5094.07,769.61 5094.07,752.22 "/>
 </g>
</svg>
